# Made in Blockbench 5.1.4
mtllib arrowslit.mtl

o front_right
v 0.4375 1 1
v 0.4375 1 0.9375
v 0.4375 0 1
v 0.4375 0 0.9375
v 0.1875 1 1
v 0.1875 1 0.6875
v 0.1875 0 1
v 0.1875 0 0.6875
v 0 1 1
v 0 0 1
v 0 0 0.5
v 0 1 0.5
v 0.1875 1 0.5
v 0.1875 0 0.5
vt 0.0625 0
vt 0.0625 1
vt 0 1
vt 0 0
vt 0.4375 0
vt 0.4375 0.0625
vt 0.1875 0.3125
vt 0.1875 0
vt 0.4375 0.9375
vt 0.4375 1
vt 0.1875 1
vt 0.1875 0.6875
vt 0.40625 0
vt 0.40625 1
vt 0.0625 1
vt 0.0625 0
vt 0.4375 1
vt 0 1
vt 0 0
vt 0.4375 0
vt 1 0
vt 1 1
vt 0.8125 1
vt 0.8125 0
vt 1 1
vt 0.5 1
vt 0.5 0
vt 1 0
vt 0.1875 0.5
vt 0 0.5
vt 0 0
vt 0.1875 0
vt 0.59375 0
vt 0.59375 1
vt 0.40625 1
vt 0.40625 0
vt 0 1
vt 0 0.5
vt 0.1875 0.5
vt 0.1875 1
vn 1 0 0
vn 0 1 0
vn 0 -1 0
vn 0.7071067811865476 0 -0.7071067811865476
vn 0 0 1
vn 0 0 -1
vn -1 0 0
vn 0 1 0
vn 1 0 0
vn 0 -1 0
usemtl m_texture
f 4/1/1 2/2/1 1/3/1 3/4/1
usemtl m_top
f 1/5/2 2/6/2 6/7/2 5/8/2
usemtl m_bottom
f 4/9/3 3/10/3 7/11/3 8/12/3
usemtl m_texture
f 8/13/4 6/14/4 2/15/4 4/16/4
f 1/17/5 9/18/5 10/19/5 3/20/5
f 11/21/6 12/22/6 13/23/6 14/24/6
f 9/25/7 12/26/7 11/27/7 10/28/7
usemtl m_top
f 13/29/8 12/30/8 9/31/8 5/32/8
usemtl m_texture
f 14/33/9 13/34/9 6/35/9 8/36/9
usemtl m_bottom
f 10/37/10 11/38/10 14/39/10 7/40/10
o front_left
v 0.5625 1 1
v 0.5625 1 0.9375
v 0.5625 0 1
v 0.5625 0 0.9375
v 0.8125 1 1
v 0.8125 1 0.6875
v 0.8125 0 1
v 0.8125 0 0.6875
v 1 1 1
v 1 0 1
v 1 0 0.5
v 1 1 0.5
v 0.8125 1 0.5
v 0.8125 0 0.5
vt 1 1
vt 0.9375 1
vt 0.9375 0
vt 1 0
vt 0.8125 0.3125
vt 0.5625 0.0625
vt 0.5625 0
vt 0.8125 0
vt 0.8125 1
vt 0.5625 1
vt 0.5625 0.9375
vt 0.8125 0.6875
vt 0.9375 1
vt 0.59375 1
vt 0.59375 0
vt 0.9375 0
vt 1 0
vt 1 1
vt 0.5625 1
vt 0.5625 0
vt 0.1875 1
vt 0 1
vt 0 0
vt 0.1875 0
vt 0.5 0
vt 0.5 1
vt 0 1
vt 0 0
vt 1 0
vt 1 0.5
vt 0.8125 0.5
vt 0.8125 0
vt 0.59375 1
vt 0.40625 1
vt 0.40625 0
vt 0.59375 0
vt 0.8125 0.5
vt 1 0.5
vt 1 1
vt 0.8125 1
vn -1 0 0
vn 0 1 0
vn 0 -1 0
vn -0.7071067811865476 0 -0.7071067811865476
vn 0 0 1
vn 0 0 -1
vn 1 0 0
vn 0 1 0
vn -1 0 0
vn 0 -1 0
usemtl m_texture
f 15/41/11 16/42/11 18/43/11 17/44/11
usemtl m_top
f 20/45/12 16/46/12 15/47/12 19/48/12
usemtl m_bottom
f 21/49/13 17/50/13 18/51/13 22/52/13
usemtl m_texture
f 16/53/14 20/54/14 22/55/14 18/56/14
f 24/57/15 23/58/15 15/59/15 17/60/15
f 27/61/16 26/62/16 25/63/16 28/64/16
f 25/65/17 26/66/17 23/67/17 24/68/17
usemtl m_top
f 23/69/18 26/70/18 27/71/18 19/72/18
usemtl m_texture
f 20/73/19 27/74/19 28/75/19 22/76/19
usemtl m_bottom
f 28/77/20 25/78/20 24/79/20 21/80/20
o front_left_overlay
v 0.8125 1 0.6875
v 0.5625 1 0.9375
v 0.5625 1 1
v 0.8125 1 1
v 1 1 1
v 1 1 0.5
v 0.8125 1 0.5
vt 0.8125 0.3125
vt 0.5625 0.0625
vt 0.5625 0
vt 0.8125 0
vt 1 0
vt 1 0.5
vt 0.8125 0.5
vt 0.8125 0
vn 0 1 0
vn 0 1 0
usemtl m_overlay_tint
f 29/81/21 30/82/21 31/83/21 32/84/21
f 33/85/22 34/86/22 35/87/22 32/88/22
o front_right_overlay
v 0.4375 1 1
v 0.4375 1 0.9375
v 0.1875 1 0.6875
v 0.1875 1 1
v 0.1875 1 0.5
v 0 1 0.5
v 0 1 1
vt 0.4375 0
vt 0.4375 0.0625
vt 0.1875 0.3125
vt 0.1875 0
vt 0.1875 0.5
vt 0 0.5
vt 0 0
vt 0.1875 0
vn 0 1 0
vn 0 1 0
usemtl m_overlay_tint
f 36/89/23 37/90/23 38/91/23 39/92/23
f 40/93/24 41/94/24 42/95/24 39/96/24