# Blender 4.2.2 LTS
# www.blender.org
mtllib generic_arch.mtl
o base_keystones
v 0.990979 -0.892432 0.042627
v 0.990979 -1.111791 0.042627
v 1.366084 -1.111791 0.042627
v 1.366084 -0.892432 0.042627
v 1.366084 -1.111790 -0.042480
v 0.990979 -1.111790 -0.042480
v 0.990979 -0.892432 -0.042480
v 1.366084 -0.892432 -0.042480
v -0.365006 -0.892432 0.042627
v -0.365006 -1.111791 0.042627
v 0.008700 -1.111791 0.042627
v 0.008700 -0.892432 0.042627
v 0.008700 -0.892432 -0.042480
v 0.008700 -1.111790 -0.042480
v -0.365006 -1.111790 -0.042480
v -0.365006 -0.892432 -0.042480
vn -0.0000 -0.0000 1.0000
vn -0.0000 -0.0000 -1.0000
vn 1.0000 -0.0000 -0.0000
vn -0.0000 -1.0000 -0.0000
vn -1.0000 -0.0000 -0.0000
vn -0.0000 1.0000 -0.0000
vt 0.218750 0.875000
vt 0.000000 0.875000
vt 0.000000 0.500000
vt 0.218750 0.500000
vt 0.000000 0.375000
vt 0.000000 0.000000
vt 0.218750 0.000000
vt 0.218750 0.375000
vt 0.281250 1.000000
vt 0.500000 1.000000
vt 0.500000 0.906250
vt 0.281250 0.906250
vt 0.125000 1.000000
vt 0.125000 0.906250
s 0
usemtl m_keystones
f 1/1/1 2/2/1 3/3/1 4/4/1
f 5/5/2 6/6/2 7/7/2 8/8/2
f 9/8/1 10/5/1 11/6/1 12/7/1
f 13/1/2 14/2/2 15/3/2 16/4/2
usemtl m_arch
f 4/9/3 3/10/3 5/11/3 8/12/3
f 2/11/4 6/10/4 5/13/4 3/14/4
f 7/12/5 6/11/5 2/10/5 1/9/5
f 7/10/6 1/11/6 4/14/6 8/13/6
f 15/10/4 14/13/4 11/14/4 10/11/4
f 11/11/3 14/10/3 13/9/3 12/12/3
f 15/10/5 10/11/5 9/12/5 16/9/5
f 9/11/6 12/14/6 13/13/6 16/10/6
o center_keystone
v 0.380789 0.324236 -0.041748
v 0.407168 0.001238 -0.041747
v 0.407168 0.001238 0.038477
v 0.380789 0.324236 0.038476
v 0.612823 0.324236 0.038476
v 0.594668 0.001238 0.038477
v 0.594668 0.001238 -0.041747
v 0.612823 0.324236 -0.041748
vn -0.9967 -0.0814 -0.0000
vn 0.9984 -0.0561 -0.0000
vn -0.0000 1.0000 -0.0000
vn -0.0000 -0.0000 1.0000
vn -0.0000 -0.0000 -1.0000
vt 0.687500 1.000000
vt 1.000000 1.000000
vt 1.000000 0.906250
vt 0.687500 0.906250
vt 0.656250 1.000000
vt 0.656250 0.906250
vt 0.875000 0.906250
vt 0.875000 1.000000
vt 0.750000 0.812500
vt 0.726562 0.500000
vt 0.539062 0.500000
vt 0.515625 0.812500
s 0
usemtl m_arch
f 17/15/7 18/16/7 19/17/7 20/18/7
f 21/18/8 22/17/8 23/16/8 24/15/8
f 17/19/9 20/20/9 21/21/9 24/22/9
usemtl m_keystones
f 20/23/10 19/24/10 22/25/10 21/26/10
f 18/25/11 17/26/11 24/23/11 23/24/11
o keystones1
v 0.185460 0.177035 0.042627
v 0.373496 -0.073087 0.042628
v 0.373496 -0.073087 -0.043185
v 0.185460 0.177035 -0.043157
v 0.000240 0.018679 -0.043157
v 0.234157 -0.198548 -0.043157
v 0.234157 -0.198549 0.042628
v 0.000240 0.018679 0.042627
v -0.142417 -0.179720 -0.043157
v 0.123947 -0.350239 -0.043157
v 0.123947 -0.350239 0.042628
v -0.142417 -0.179720 0.042628
v -0.012262 0.003558 0.042627
v -0.012262 0.003558 -0.043157
v 0.047684 -0.521529 0.042628
v 0.047684 -0.521529 -0.043157
v -0.254965 -0.423087 -0.043157
v -0.254965 -0.423088 0.042628
v -0.152431 -0.195824 0.042628
v -0.152431 -0.195824 -0.043157
v 0.008700 -0.704932 0.042627
v 0.008700 -0.704932 -0.043157
v -0.309274 -0.664610 -0.043157
v -0.309274 -0.664610 0.042627
v -0.262615 -0.439949 0.042628
v -0.262615 -0.439949 -0.043157
v -0.314298 -0.892432 -0.043157
v -0.314298 -0.892432 0.042627
v -0.314298 -0.686585 0.042627
v -0.314298 -0.686585 -0.043157
v 0.008700 -0.892432 0.042627
v 0.008700 -0.892432 -0.043157
v 0.200122 0.189232 -0.043213
v 0.200122 0.189232 0.042627
v 0.520442 0.011752 -0.043212
v 0.520442 0.011752 0.042627
v 0.382374 0.307483 0.042627
v 0.382374 0.307483 -0.043213
vn 0.7993 0.6009 -0.0000
vn -0.6805 -0.7328 -0.0000
vn 0.6691 -0.7431 -0.0000
vn -0.6498 0.7601 -0.0000
vn -0.5392 -0.8422 -0.0000
vn -0.8153 0.5790 -0.0000
vn 0.6342 0.7732 -0.0000
vn 0.8090 -0.5878 -0.0000
vn 0.9135 -0.4067 -0.0000
vn -0.3093 -0.9510 -0.0000
vn 0.4877 0.8730 -0.0000
vn -0.9115 0.4112 -0.0000
vn 0.9781 -0.2079 -0.0000
vn -0.1258 -0.9921 -0.0000
vn 0.2543 0.9671 -0.0000
vn -0.9791 0.2033 -0.0000
vn -1.0000 -0.0000 -0.0000
vn 1.0000 -0.0000 -0.0000
vn 0.0567 0.9984 -0.0000
vn -0.8343 -0.5514 -0.0000
vn 0.5000 -0.8660 -0.0000
vn -0.5443 0.8389 -0.0000
vn -0.0000 -0.0000 1.0000
vn -0.0001 -0.0000 -1.0000
vn -0.0000 -0.0000 -1.0000
vn -0.0000 -0.0001 -1.0000
vt 0.687500 0.906250
vt 1.000000 0.906250
vt 1.000000 1.000000
vt 0.687500 1.000000
vt 0.812500 1.000000
vt 0.500000 1.000000
vt 0.500000 0.906250
vt 0.812500 0.906250
vt 0.781250 0.906250
vt 0.781250 1.000000
vt 0.993375 0.906250
vt 0.993375 1.000000
vt 0.281250 0.906250
vt 0.281250 1.000000
vt 0.312500 0.906250
vt 0.000000 0.906250
vt 0.000000 1.000000
vt 0.312500 1.000000
vt 0.718750 1.000000
vt 0.718750 0.906250
vt 0.468750 1.000000
vt 0.468750 0.906250
vt 0.187500 0.906250
vt 0.187500 1.000000
vt 0.500000 0.843750
vt 0.531250 0.531250
vt 0.718750 0.531250
vt 0.750000 0.843750
vt 0.500000 0.312500
vt 0.742188 0.312500
vt 0.710938 0.000000
vt 0.531250 0.000000
vt 0.234375 0.000000
vt 0.257812 0.312500
vt 0.031250 0.312500
vt 0.046875 0.000000
vt 0.000000 0.843750
vt 0.218750 0.843750
vt 0.195312 0.531250
vt 0.015625 0.531250
vt 0.531250 0.843750
vt 0.500000 0.531250
vt 0.750000 0.531250
vt 0.722835 0.842839
vt 0.718750 0.000000
vt 0.750000 0.312500
vt 0.000000 0.000000
vt 0.218750 0.000000
vt 0.203125 0.312500
vt 0.023438 0.312500
vt 0.234375 0.500000
vt 0.250000 0.812500
vt 0.031250 0.812500
vt 0.054688 0.500000
vt 0.500000 0.000000
vt 0.703125 0.000000
vt 0.687500 0.312500
vt 0.531250 0.812500
vt 0.531250 0.500000
vt 0.718750 0.500000
vt 0.734375 0.812500
vt 0.218750 0.812500
vt 0.187500 0.500000
vt 0.015625 0.500000
vt 0.000000 0.812500
vt 0.000000 0.312500
vt 0.218750 0.312500
vt 0.171875 0.000000
s 0
usemtl m_arch
f 25/27/12 26/28/12 27/29/12 28/30/12
f 29/31/13 30/32/13 31/33/13 32/34/13
f 31/28/14 30/29/14 27/31/14 26/34/14
f 29/29/15 32/28/15 25/35/15 28/36/15
f 33/37/16 34/33/16 35/32/16 36/38/16
f 33/32/17 36/33/17 37/39/17 38/40/17
f 37/41/18 31/42/18 30/43/18 38/44/18
f 35/33/19 34/32/19 30/44/19 31/41/19
f 39/29/20 40/28/20 34/34/20 35/31/20
f 41/34/21 40/33/21 39/32/21 42/31/21
f 43/30/22 35/29/22 34/28/22 44/27/22
f 41/33/23 42/32/23 43/45/23 44/46/23
f 45/47/24 46/48/24 40/39/24 39/40/24
f 47/49/25 46/33/25 45/32/25 48/50/25
f 49/50/26 39/32/26 40/33/26 50/49/26
f 47/33/27 48/32/27 49/40/27 50/39/27
f 51/28/28 52/29/28 53/31/28 54/34/28
f 55/32/29 56/33/29 46/27/29 45/30/29
f 53/31/30 45/32/30 46/33/30 54/34/30
f 57/41/31 27/42/31 26/43/31 58/44/31
f 26/32/32 27/33/32 59/41/32 60/44/32
f 57/33/33 58/32/33 61/40/33 62/39/33
usemtl m_keystones
f 32/51/34 31/52/34 26/53/34 25/54/34
f 29/55/35 28/56/35 27/57/35 30/58/35
f 31/59/34 37/60/34 36/61/34 35/62/34
f 33/63/36 38/64/36 30/65/36 34/66/36
f 40/67/36 41/68/36 44/69/36 34/70/36
f 42/55/34 39/58/34 35/71/34 43/72/34
f 47/73/36 50/74/36 40/75/36 46/76/36
f 39/77/34 49/78/34 48/79/34 45/80/34
f 51/81/36 54/82/36 46/83/36 56/55/36
f 52/84/34 55/85/34 45/86/34 53/87/34
f 58/88/34 26/89/34 60/90/34 61/91/34
f 57/92/37 62/93/37 59/94/37 27/73/37
o keystones2
v 1.260126 -0.434942 0.040430
v 1.311726 -0.668847 0.040430
v 1.311726 -0.668847 -0.044677
v 1.260126 -0.434942 -0.044677
v 0.952316 -0.521529 -0.044677
v 0.991300 -0.704932 -0.044677
v 0.991300 -0.704932 0.040430
v 0.952316 -0.521529 0.040430
v 0.876053 -0.350239 -0.044677
v 0.876053 -0.350239 0.040430
v 1.159092 -0.204816 0.040430
v 1.159092 -0.204816 -0.044677
v 1.252489 -0.415505 0.040430
v 1.252489 -0.415505 -0.044677
v 0.765843 -0.198548 -0.044677
v 0.765843 -0.198549 0.040430
v 1.017573 -0.000572 0.040429
v 1.017573 -0.000572 -0.044677
v 1.148341 -0.187089 0.040430
v 1.148341 -0.187089 -0.044677
v 0.626504 -0.073087 0.040430
v 0.626504 -0.073087 -0.044677
v 1.004114 0.011305 -0.044677
v 1.004114 0.011305 0.040429
v 0.811489 0.179919 0.040429
v 0.811489 0.179919 -0.044678
v 0.479136 0.011997 -0.044677
v 0.479136 0.011996 0.040429
v 0.796919 0.191356 -0.044678
v 0.796919 0.191356 0.040429
v 0.612328 0.307794 -0.044678
v 0.612328 0.307794 0.040429
v 1.314298 -0.892432 0.040430
v 1.314298 -0.892432 -0.044677
v 1.314208 -0.686395 -0.044677
v 1.314208 -0.686395 0.040430
v 0.991300 -0.892432 -0.044677
v 0.991300 -0.892432 0.040430
vn 0.9765 0.2154 -0.0000
vn -0.9781 -0.2079 -0.0000
vn 0.1119 -0.9937 -0.0000
vn -0.2708 0.9626 -0.0000
vn -0.4570 0.8895 -0.0000
vn 0.9142 0.4053 -0.0000
vn -0.9135 -0.4067 -0.0000
vn 0.3330 -0.9429 -0.0000
vn -0.6182 0.7860 -0.0000
vn 0.8188 0.5741 -0.0000
vn -0.8090 -0.5878 -0.0000
vn 0.5140 -0.8578 -0.0000
vn -0.6691 -0.7431 -0.0000
vn 0.6609 -0.7504 -0.0000
vn -0.8072 0.5902 -0.0000
vn 0.6587 0.7524 -0.0000
vn -0.5000 -0.8660 -0.0000
vn 0.8406 -0.5417 -0.0000
vn 0.5335 0.8458 -0.0000
vn 1.0000 0.0004 -0.0000
vn -1.0000 -0.0000 -0.0000
vn -0.0573 0.9984 -0.0000
vn -0.0000 -0.0000 1.0000
vn -0.0000 -0.0000 -1.0000
vt 0.281250 0.906250
vt 0.500000 0.906250
vt 0.500000 1.000000
vt 0.281250 1.000000
vt 0.312500 1.000000
vt 0.312500 0.906250
vt 0.187500 1.000000
vt 0.187500 0.906250
vt 1.000000 0.906250
vt 1.000000 1.000000
vt 0.687500 1.000000
vt 0.687500 0.906250
vt 0.718750 0.906250
vt 0.718750 1.000000
vt 0.812500 1.000000
vt 0.812500 0.906250
vt 0.468750 0.906250
vt 0.468750 1.000000
vt 0.156250 1.000000
vt 0.156250 0.906250
vt 0.000000 0.906250
vt 0.000000 1.000000
vt 0.968750 0.906250
vt 0.968750 1.000000
vt 0.781250 1.000000
vt 0.781250 0.906250
vt 0.750000 0.906250
vt 0.750000 1.000000
vt 0.226562 0.000000
vt 0.210938 0.312500
vt 0.023438 0.312500
vt 0.000000 0.000000
vt 0.023438 0.812500
vt 0.046875 0.500000
vt 0.234375 0.500000
vt 0.265625 0.810706
vt 0.515625 0.000000
vt 0.703125 0.000000
vt 0.726562 0.312500
vt 0.500000 0.312500
vt 0.734375 0.531250
vt 0.718750 0.843750
vt 0.531250 0.843750
vt 0.507812 0.531250
vt 0.023438 0.531250
vt 0.000000 0.843750
vt 0.226562 0.843750
vt 0.210938 0.531250
vt 0.054688 0.000000
vt 0.234375 0.000000
vt 0.242188 0.312500
vt 0.523438 0.531250
vt 0.710938 0.531250
vt 0.750000 0.843750
vt 0.500000 0.843750
vt 0.546875 0.000000
vt 0.515625 0.312500
vt 0.765625 0.312500
vt 0.734375 0.000000
vt 0.218750 0.812500
vt 0.187500 0.500000
vt 0.015625 0.500000
vt 0.000000 0.812500
vt 0.218750 0.312500
vt 0.171875 0.000000
vt 0.000000 0.312500
vt 0.500000 0.000000
vt 0.679688 0.312500
vt 0.687500 0.500000
vt 0.703125 0.812409
vt 0.500000 0.812500
vt 0.500000 0.500000
s 0
usemtl m_arch
f 63/95/38 64/96/38 65/97/38 66/98/38
f 67/99/39 68/97/39 69/96/39 70/100/39
f 69/96/40 68/97/40 65/101/40 64/102/40
f 70/96/41 63/102/41 66/101/41 67/97/41
f 71/103/42 72/104/42 73/105/42 74/106/42
f 75/97/43 76/96/43 74/107/43 73/108/43
f 67/103/44 70/104/44 72/109/44 71/110/44
f 67/96/45 76/110/45 75/109/45 70/97/45
f 77/111/46 78/112/46 79/113/46 80/114/46
f 81/97/47 82/96/47 80/95/47 79/98/47
f 71/96/48 72/97/48 78/99/48 77/100/48
f 71/115/49 82/100/49 81/99/49 72/116/49
f 77/117/50 78/118/50 83/119/50 84/120/50
f 77/103/51 85/106/51 86/105/51 78/104/51
f 84/96/52 83/97/52 87/109/52 88/110/52
f 86/118/53 85/117/53 88/121/53 87/122/53
f 89/95/54 84/111/54 83/112/54 90/98/54
f 84/115/55 91/100/55 92/99/55 83/116/55
f 92/97/56 91/96/56 93/95/56 94/98/56
f 95/117/57 96/118/57 97/119/57 98/120/57
f 99/97/58 100/96/58 69/106/58 68/105/58
f 69/103/59 98/106/59 97/105/59 68/104/59
usemtl m_keystones
f 63/123/60 70/124/60 69/125/60 64/126/60
f 65/127/61 68/128/61 67/129/61 66/130/61
f 67/131/61 71/132/61 74/133/61 76/134/61
f 73/135/60 72/136/60 70/137/60 75/138/60
f 72/139/60 81/140/60 79/141/60 78/142/60
f 71/143/61 77/144/61 80/145/61 82/125/61
f 77/146/61 84/147/61 88/148/61 85/149/61
f 78/150/60 86/151/60 87/152/60 83/153/60
f 91/154/61 84/155/61 89/156/61 93/157/61
f 94/158/60 90/159/60 83/126/60 92/160/60
f 100/134/60 95/161/60 98/132/60 69/162/60
f 68/163/61 97/164/61 96/165/61 99/166/61
o mortar
v 1.311184 -0.717097 -0.014599
v 1.015022 -0.758720 -0.014599
v 0.991873 -0.608764 -0.014599
v 1.280729 -0.546735 -0.014599
v 1.311184 -0.717097 0.013526
v 1.280729 -0.546736 0.013526
v 1.015022 -0.758720 0.013526
v 0.991873 -0.608765 0.013526
v 1.233109 -0.381284 0.013526
v 0.945622 -0.463719 0.013526
v 0.945622 -0.463719 -0.014599
v 1.233109 -0.381284 -0.014599
v 1.189532 -0.284079 -0.014599
v 0.925467 -0.424485 -0.014599
v 0.845991 -0.275013 -0.014599
v 1.110056 -0.134608 -0.014599
v 1.189532 -0.284079 0.013526
v 1.110056 -0.134608 0.013526
v 0.925467 -0.424485 0.013526
v 0.845991 -0.275014 0.013526
v 1.041148 -0.054200 -0.014599
v 0.812045 -0.246440 -0.014599
v 0.703230 -0.116758 -0.014599
v 0.926546 0.075482 -0.014600
v 1.041148 -0.054200 0.013526
v 0.926546 0.075482 0.013525
v 0.812045 -0.246440 0.013526
v 0.703230 -0.116758 0.013526
v 0.869676 0.125265 -0.014600
v 0.685548 -0.110407 -0.014599
v 0.552148 -0.006184 -0.014599
v 0.736276 0.229488 -0.014600
v 0.869676 0.125265 0.013525
v 0.736276 0.229488 0.013525
v 0.685548 -0.110407 0.013526
v 0.552148 -0.006184 0.013526
v 0.130324 0.125265 0.013525
v 0.314452 -0.110407 0.013526
v 0.447852 -0.006184 0.013526
v 0.263724 0.229488 0.013525
v 0.314452 -0.110407 -0.014599
v 0.130324 0.125265 -0.014600
v 0.263724 0.229488 -0.014600
v 0.447852 -0.006184 -0.014599
v -0.041148 -0.054200 -0.014599
v -0.041148 -0.054200 0.013526
v 0.067668 0.075482 0.013525
v 0.067668 0.075482 -0.014600
v 0.187955 -0.246440 0.013526
v 0.296770 -0.116758 0.013526
v 0.187955 -0.246440 -0.014599
v 0.296770 -0.116758 -0.014599
v 0.074533 -0.424485 -0.014599
v -0.189532 -0.284079 -0.014599
v -0.110056 -0.134608 -0.014599
v 0.154009 -0.275013 -0.014599
v -0.189532 -0.284079 0.013526
v -0.110056 -0.134608 0.013526
v 0.074533 -0.424485 0.013526
v 0.154009 -0.275014 0.013526
v -0.280622 -0.546735 -0.014599
v -0.280622 -0.546736 0.013526
v -0.233109 -0.381284 0.013526
v -0.233109 -0.381284 -0.014599
v 0.008127 -0.608765 0.013526
v 0.054378 -0.463719 0.013526
v 0.008127 -0.608764 -0.014599
v 0.054378 -0.463719 -0.014599
v -0.311184 -0.717097 -0.014599
v -0.311184 -0.717097 0.013526
v -0.015022 -0.758720 0.013526
v -0.015022 -0.758720 -0.014599
vn -0.0000 -0.0000 -1.0000
vn 0.9844 0.1760 -0.0000
vn -0.0000 -0.0000 1.0000
vn 0.9610 0.2766 -0.0000
vn 0.8829 0.4695 -0.0000
vn 0.7493 0.6622 -0.0000
vn 0.6157 0.7880 -0.0000
vn -0.6157 0.7880 -0.0000
vn -0.7660 0.6428 -0.0000
vn -0.8829 0.4695 -0.0000
vn -0.9612 0.2760 -0.0000
vn -0.9843 0.1766 -0.0000
vt 0.500000 1.000000
vt 0.484375 0.703125
vt 0.328125 0.703125
vt 0.328125 1.000000
vt 0.500000 0.968750
vt 0.343750 0.968750
vt 0.343750 1.000000
vt 0.500000 0.703125
vt 0.484375 1.000000
vt 0.171875 1.000000
vt 0.156250 0.703125
vt 0.171875 0.703125
vt 0.156250 1.000000
vt 0.187500 0.968750
vt 0.187500 1.000000
vt 0.156250 0.999997
vt 0.000000 0.703128
vt 0.000000 1.000000
vt 0.031250 0.968750
vt 0.031250 1.000000
vt 0.156250 0.703128
vt 0.000000 0.999997
vt 0.000000 0.703125
vt 0.500000 0.999997
vt 0.343750 0.703128
vt 0.500000 0.703128
vt 0.343750 0.703125
vt 0.343750 0.999997
vt 0.187500 0.703128
vt 0.187500 0.703125
vt 0.187500 0.999997
vt 0.187500 1.000000
s 0
usemtl m_arch
f 101/167/62 102/168/62 103/169/62 104/170/62
f 105/167/63 101/171/63 104/172/63 106/173/63
f 107/174/64 105/175/64 106/170/64 108/169/64
f 108/169/64 106/170/64 109/176/64 110/177/64
f 104/170/62 103/169/62 111/178/62 112/179/62
f 106/173/65 104/172/65 112/180/65 109/181/65
f 113/182/62 114/177/62 115/183/62 116/184/62
f 117/181/66 113/180/66 116/185/66 118/186/66
f 119/187/64 117/179/64 118/188/64 120/189/64
f 121/190/62 122/174/62 123/191/62 124/173/62
f 125/167/67 121/171/67 124/172/67 126/173/67
f 127/192/64 125/167/64 126/173/64 128/193/64
f 129/194/62 130/193/62 131/195/62 132/181/62
f 133/173/68 129/172/68 132/180/68 134/181/68
f 135/191/64 133/173/64 134/181/64 136/196/64
f 137/194/64 138/193/64 139/195/64 140/181/64
f 141/191/62 142/173/62 143/197/62 144/196/62
f 142/173/69 137/172/69 140/180/69 143/198/69
f 145/167/70 146/171/70 147/172/70 148/173/70
f 146/190/64 149/174/64 150/191/64 147/173/64
f 151/192/62 145/167/62 148/173/62 152/193/62
f 153/187/62 154/179/62 155/188/62 156/189/62
f 154/181/71 157/180/71 158/185/71 155/186/71
f 157/182/64 159/177/64 160/183/64 158/184/64
f 161/173/72 162/172/72 163/180/72 164/181/72
f 162/170/64 165/169/64 166/178/64 163/179/64
f 167/169/62 161/170/62 164/176/62 168/177/62
f 169/167/73 170/171/73 162/172/73 161/173/73
f 170/167/64 171/168/64 165/169/64 162/170/64
f 172/174/62 169/175/62 161/170/62 167/169/62
