# Blender v3.2.2 OBJ File: ''
# www.blender.org
mtllib generic_arch.mtl
o inner
v -0.443992 0.160416 0.010745
v 0.045790 0.002511 0.010654
v 0.092452 0.165241 0.010654
v -0.397330 0.323146 0.010745
v -0.443992 0.160416 -0.020190
v -0.397330 0.323145 -0.020190
v 0.045790 0.002511 -0.020281
v 0.092452 0.165241 -0.020281
v -0.527814 -0.230910 0.010654
v -0.006110 -0.290699 0.010654
v 0.017451 -0.123059 0.010654
v -0.504253 -0.063270 0.010654
v -0.527814 -0.230910 -0.020281
v -0.504253 -0.063271 -0.020281
v -0.006110 -0.290699 -0.020281
v 0.017451 -0.123060 -0.020281
v -0.300069 0.549218 0.010683
v 0.152758 0.285822 0.010654
v 0.232234 0.435294 0.010654
v -0.220594 0.698689 0.010683
v 0.152758 0.285822 -0.020281
v -0.300069 0.549218 -0.020253
v -0.220594 0.698690 -0.020252
v 0.232234 0.435294 -0.020281
v 0.315448 0.538627 -0.020505
v -0.068211 0.893663 -0.020505
v 0.040605 1.023345 -0.020505
v 0.424264 0.668308 -0.020505
v -0.068211 0.893663 0.010430
v 0.315448 0.538627 0.010430
v 0.424264 0.668308 0.010430
v 0.040605 1.023345 0.010430
v 0.220909 1.178273 0.010446
v 0.526271 0.755042 0.010446
v 0.659671 0.859265 0.010446
v 0.354309 1.282497 0.010446
v 0.220909 1.178273 -0.020489
v 0.354309 1.282496 -0.020489
v 0.526271 0.755042 -0.020489
v 0.659671 0.859265 -0.020489
v 0.567268 1.400877 0.010684
v 0.778151 0.923500 0.010654
v 0.931577 0.995044 0.010654
v 0.720694 1.472421 0.010684
v 0.778151 0.923500 -0.020281
v 0.567268 1.400878 -0.020252
v 0.720694 1.472422 -0.020252
v 0.931577 0.995044 -0.020281
vt 0.000000 0.531250
vt 0.000000 0.000000
vt 0.156250 0.000000
vt 0.156250 0.531250
vt 0.000000 1.000000
vt 0.000000 0.968750
vt 0.156250 0.968750
vt 0.156250 1.000000
vt 0.000000 0.000000
vt 0.000000 0.531250
vt 0.156250 0.531250
vt 0.156250 0.000000
vt 0.000000 0.531250
vt 0.000000 0.000000
vt 0.156250 0.000000
vt 0.156250 0.531250
vt 0.000000 0.968750
vt 0.000000 1.000000
vt 0.156250 1.000000
vt 0.156250 0.968750
vt 0.000000 0.000000
vt 0.000000 0.531250
vt 0.156250 0.531250
vt 0.156250 0.000000
vt 0.000000 0.531250
vt 0.000000 0.000000
vt 0.156250 0.000000
vt 0.156250 0.531250
vt 0.000000 0.000000
vt 0.000000 0.531250
vt 0.156250 0.531250
vt 0.156250 0.000000
vt 0.000000 0.968750
vt 0.000000 1.000000
vt 0.156250 1.000000
vt 0.156250 0.968750
vt 0.000000 0.000000
vt 0.000000 0.531250
vt 0.156250 0.531250
vt 0.156250 0.000000
vt 0.000000 0.531250
vt 0.000000 0.000000
vt 0.156250 0.000000
vt 0.156250 0.531250
vt 0.000000 1.000000
vt 0.000000 0.968750
vt 0.156250 0.968750
vt 0.156250 1.000000
vt 0.156250 0.531250
vt 0.156250 0.000000
vt 0.000000 0.000000
vt 0.000000 0.531250
vt 0.000000 1.000000
vt 0.000000 0.968750
vt 0.156250 0.968750
vt 0.156250 1.000000
vt 0.000000 0.000000
vt 0.000000 0.531250
vt 0.156250 0.531250
vt 0.156250 0.000000
vt 0.156250 0.531250
vt 0.156250 0.000000
vt 0.000000 0.000000
vt 0.000000 0.531250
vt 0.000000 0.000000
vt 0.000000 0.531250
vt 0.156250 0.531250
vt 0.156250 0.000000
vt 0.000000 0.968750
vt 0.000000 1.000000
vt 0.156250 1.000000
vt 0.156250 0.968750
vn 0.0002 -0.0000 1.0000
vn -0.9613 0.2756 -0.0000
vn -0.0002 0.0000 -1.0000
vn -0.0000 -0.0000 1.0000
vn -0.9903 0.1392 -0.0000
vn 0.0000 0.0000 -1.0000
vn -0.8829 0.4695 0.0000
vn -0.7660 0.6428 0.0000
vn -0.6157 0.7880 -0.0000
vn 0.0000 -0.0001 1.0000
vn -0.0000 0.0001 -1.0000
vn -0.4226 0.9063 0.0000
usemtl m_arch
s 1
f 1/1/1 2/2/1 3/3/1 4/4/1
f 5/5/2 1/6/2 4/7/2 6/8/2
f 7/9/3 5/10/3 6/11/3 8/12/3
f 9/13/4 10/14/4 11/15/4 12/16/4
f 13/17/5 9/18/5 12/19/5 14/20/5
f 15/21/6 13/22/6 14/23/6 16/24/6
f 17/25/4 18/26/4 19/27/4 20/28/4
f 21/29/6 22/30/6 23/31/6 24/32/6
f 22/33/7 17/34/7 20/35/7 23/36/7
f 25/37/6 26/38/6 27/39/6 28/40/6
f 29/41/4 30/42/4 31/43/4 32/44/4
f 26/45/8 29/46/8 32/47/8 27/48/8
f 33/49/4 34/50/4 35/51/4 36/52/4
f 37/53/9 33/54/9 36/55/9 38/56/9
f 39/57/6 37/58/6 38/59/6 40/60/6
f 41/61/10 42/62/10 43/63/10 44/64/10
f 45/65/11 46/66/11 47/67/11 48/68/11
f 46/69/12 41/70/12 44/71/12 47/72/12
o arch
v 0.008700 -0.513585 -0.043653
v -0.548673 -0.513585 -0.043653
v -0.538272 -0.152754 -0.043653
v 0.008700 -0.212335 -0.043653
v 0.008700 -0.513585 0.051723
v 0.008700 -0.212335 0.051723
v -0.538272 -0.152754 0.051723
v -0.548673 -0.513585 0.051723
v -0.536493 -0.133333 -0.043653
v -0.452069 0.240835 -0.043653
v 0.071334 0.082332 -0.043653
v 0.071334 0.082332 0.051723
v -0.452069 0.240835 0.051723
v -0.536493 -0.133332 0.051723
v -0.284544 0.629208 -0.043653
v 0.193863 0.357538 -0.043653
v -0.444135 0.261921 -0.043653
v -0.444135 0.261921 0.051723
v 0.193863 0.357538 0.051723
v -0.284544 0.629208 0.051723
v -0.039458 0.968796 -0.043653
v 0.370933 0.601254 -0.043653
v -0.276113 0.643508 -0.043653
v 0.370933 0.601254 0.051723
v -0.039458 0.968796 0.051723
v -0.276113 0.643508 0.051723
v 0.594806 0.802830 0.051723
v 0.258185 1.244304 0.051724
v -0.028507 0.985271 0.051723
v 0.258185 1.244304 -0.043653
v 0.594806 0.802830 -0.043653
v -0.028507 0.985270 -0.043653
v 0.621944 1.452076 -0.043653
v 0.855696 0.953454 -0.043653
v 0.281310 1.260240 -0.043653
v 0.855696 0.953455 0.051765
v 0.621944 1.452076 0.051724
v 0.281310 1.260240 0.051724
v 1.001113 0.999399 0.051806
v 0.999172 1.587837 0.051806
v 0.647564 1.461801 0.051806
v 0.999172 1.587837 -0.043653
v 1.001113 0.999399 -0.043653
v 0.647564 1.461801 -0.043653
vt 0.000000 1.000000
vt 0.000000 0.500000
vt 0.312500 0.500000
vt 0.250000 1.000000
vt 0.000000 0.000000
vt 0.250000 0.000000
vt 0.312500 0.500000
vt 0.000000 0.500000
vt 0.515625 0.500000
vt 0.500000 0.000000
vt 0.843750 0.000000
vt 0.781250 0.500000
vt 0.514323 0.000000
vt 0.781250 0.000000
vt 0.843750 0.500000
vt 0.500000 0.500000
vt 0.343750 0.000000
vt 0.281250 0.500000
vt 0.015625 0.500000
vt 0.000000 0.003283
vt 0.000000 0.496717
vt 0.015625 0.000000
vt 0.281250 0.000000
vt 0.343750 0.500000
vt 0.875000 0.500000
vt 0.812500 0.000000
vt 0.546875 0.000000
vt 0.531250 0.500000
vt 0.514323 0.500000
vt 0.781250 0.500000
vt 0.843750 1.000000
vt 0.500000 1.000000
vt 0.015625 0.500000
vt 0.281250 0.500000
vt 0.343750 1.000000
vt 0.000000 1.000000
vt 0.343750 1.000000
vt 0.281250 0.500000
vt 0.015625 0.500000
vt 0.000000 1.000000
vt 0.843750 1.000000
vt 0.781250 0.500000
vt 0.515625 0.500000
vt 0.500000 1.000000
vt 0.515625 0.000000
vt 0.500000 0.500000
vt 0.843750 0.500000
vt 0.781250 0.000000
vt 0.500000 0.000000
vt 0.342364 0.000000
vt 0.187500 0.500000
vt 0.500000 0.500000
vt 0.312500 0.500000
vt 0.156250 0.000000
vt 0.000000 0.000000
vt 0.000000 0.500000
vt 0.500000 1.000000
vt 0.500000 0.906250
vt 0.187500 0.906250
vt 0.187500 1.000000
vt 0.000000 1.000000
vt 0.500000 1.000000
vt 0.500000 0.906250
vt 0.000000 0.906250
vt 0.156250 1.000000
vt 0.156250 0.906250
vt 0.500000 0.906250
vt 0.000000 0.906250
vt 0.000000 1.000000
vt 0.500000 1.000000
vt 1.000000 1.000000
vt 0.500000 1.000000
vt 0.500000 0.906250
vt 1.000000 0.906250
vt 1.000000 0.906250
vt 1.000000 1.000000
vt 0.687500 1.000000
vt 0.687500 0.906250
vt 0.500000 0.906250
vt 0.500000 1.000000
vt 0.968750 1.000000
vt 0.968750 0.906250
vt 0.625000 0.906250
vt 0.625000 1.000000
vt 0.000000 0.906250
vt 0.500000 0.906250
vt 0.500000 1.000000
vt 0.000000 1.000000
vt 0.500000 1.000000
vt 0.000000 1.000000
vt 0.000000 0.906250
vt 0.500000 0.906250
vt 0.156250 0.906250
vt 0.156250 1.000000
vt 0.468750 0.906250
vt 0.468750 1.000000
vt 0.156250 1.000000
vt 0.156250 0.906250
vt 0.500000 1.000000
vt 0.500000 0.906250
vt 0.843750 0.906250
vt 0.843750 1.000000
vt 0.812500 1.000000
vt 0.812500 0.906250
vt 1.000000 1.000000
vt 0.500000 1.000000
vt 0.500000 0.906250
vt 1.000000 0.906250
vt 1.000000 0.906250
vt 1.000000 1.000000
vt 0.500000 0.906250
vt 0.500000 1.000000
vt 0.187500 1.000000
vt 0.187500 0.906250
vt 0.500000 1.000000
vt 0.500000 0.906250
vt 0.125000 0.906250
vt 0.125000 1.000000
vt 0.500000 1.000000
vt 0.000000 1.000000
vt 0.000000 0.906250
vt 0.500000 0.906250
vt 0.000000 0.906250
vt 0.500000 1.000000
vt 0.500000 0.906250
vt 0.812500 0.906250
vt 0.812500 1.000000
vt 1.000000 1.000000
vt 1.000000 0.906250
vt 0.625000 0.906250
vt 0.625000 1.000000
vt 1.000000 1.000000
vt 0.500000 1.000000
vt 0.500000 0.906250
vt 1.000000 0.906250
vt 0.500000 1.000000
vt 0.500000 0.906250
vt 0.343750 0.906250
vt 0.343750 1.000000
vt 0.500000 0.906250
vt 0.500000 1.000000
vt 0.125000 1.000000
vt 0.125000 0.906250
vt 0.000000 1.000000
vt 0.000000 0.906250
vt 0.500000 0.906250
vt 0.000000 0.906250
vt 0.000000 1.000000
vt 0.500000 1.000000
vn -0.0000 0.0000 -1.0000
vn 0.0000 -0.0000 1.0000
vn -0.0001 0.0000 1.0000
vn -0.0004 0.0000 1.0000
vn 1.0000 0.0000 0.0000
vn 0.0000 -1.0000 0.0000
vn -0.9996 0.0288 0.0000
vn 0.1083 0.9941 0.0000
vn 0.2898 0.9571 0.0000
vn 0.9781 -0.2079 -0.0000
vn -0.1434 -0.9897 0.0000
vn -0.9755 0.2201 -0.0000
vn -0.3290 -0.9443 -0.0000
vn 0.4938 0.8696 0.0000
vn -0.9172 0.3985 0.0000
vn 0.9135 -0.4067 -0.0000
vn -0.8086 0.5883 0.0000
vn 0.8090 -0.5878 0.0000
vn 0.6671 0.7449 0.0000
vn -0.5198 -0.8543 0.0000
vn 0.6691 -0.7431 0.0000
vn -0.6704 0.7420 -0.0000
vn 0.7952 0.6063 0.0000
vn -0.6931 -0.7209 0.0000
vn 0.5000 -0.8660 0.0000
vn -0.4907 0.8713 0.0000
vn -0.8249 -0.5653 0.0000
vn 0.9054 0.4245 -0.0000
vn 0.3013 -0.9535 0.0000
vn -0.3374 0.9413 0.0000
vn -0.9254 -0.3789 0.0000
vn 1.0000 0.0033 0.0000
usemtl m_keystones
s 1
f 49/73/13 50/74/13 51/75/13 52/76/13
f 53/77/14 54/78/14 55/79/14 56/80/14
f 52/81/13 57/82/13 58/83/13 59/84/13
f 54/85/14 60/86/14 61/87/14 62/88/14
f 63/89/13 64/90/13 59/91/13 65/92/13
f 66/93/14 60/94/14 67/95/14 68/96/14
f 69/97/13 70/98/13 64/99/13 71/100/13
f 67/101/14 72/102/14 73/103/14 74/104/14
f 72/105/14 75/106/14 76/107/14 77/108/14
f 78/109/13 79/110/13 70/111/13 80/112/13
f 81/113/13 82/114/13 79/115/13 83/116/13
f 84/117/15 85/118/15 86/119/15 75/120/15
f 84/121/16 87/122/16 88/123/16 89/124/16
f 90/125/13 91/126/13 82/127/13 92/128/13
usemtl m_arch
f 53/129/17 49/130/17 52/131/17 54/132/17
f 53/133/18 56/134/18 50/135/18 49/136/18
f 50/135/19 56/134/19 55/137/19 51/138/19
f 52/139/20 51/140/20 55/141/20 54/142/20
f 59/143/21 58/144/21 61/145/21 60/146/21
f 54/147/22 52/148/22 59/149/22 60/150/22
f 54/147/23 62/151/23 57/152/23 52/148/23
f 57/153/24 62/154/24 61/155/24 58/156/24
f 60/157/25 66/158/25 65/159/25 59/160/25
f 64/161/26 63/162/26 68/163/26 67/164/26
f 65/159/27 66/158/27 68/165/27 63/166/27
f 60/167/28 59/168/28 64/169/28 67/170/28
f 71/171/29 74/172/29 73/173/29 69/174/29
f 67/164/30 64/161/30 70/175/30 72/176/30
f 70/177/31 69/178/31 73/179/31 72/180/31
f 67/164/32 74/181/32 71/182/32 64/161/32
f 72/183/33 70/184/33 79/185/33 75/186/33
f 80/187/34 77/188/34 76/189/34 78/190/34
f 79/191/35 78/192/35 76/193/35 75/194/35
f 72/183/36 77/195/36 80/112/36 70/184/36
f 75/196/37 79/197/37 82/198/37 84/199/37
f 83/200/38 86/201/38 85/202/38 81/203/38
f 75/194/39 86/201/39 83/200/39 79/191/39
f 82/204/40 81/205/40 85/206/40 84/207/40
f 84/208/41 82/209/41 91/210/41 87/211/41
f 92/212/42 89/213/42 88/214/42 90/215/42
f 84/208/43 89/216/43 92/217/43 82/209/43
f 91/218/44 90/219/44 88/220/44 87/221/44
