# Blender v3.2.2 OBJ File: ''
# www.blender.org
mtllib generic_arch.mtl
o ashlar_3_middle
v 0.887745 0.544909 -0.055789
v 0.887745 0.544908 0.051861
v 0.513048 0.667129 0.051965
v 0.513048 0.667130 -0.056051
v 1.132231 1.113845 0.051861
v 0.707927 1.267173 0.051861
v 1.132231 1.113845 -0.055789
v 0.707927 1.267173 -0.055789
v 0.486961 0.667129 0.051965
v 0.112255 0.544908 0.051861
v 0.112255 0.544909 -0.055789
v 0.486961 0.667130 -0.056051
v 0.292073 1.267173 0.051861
v -0.132231 1.113845 0.051861
v 0.292073 1.267173 -0.055789
v -0.132231 1.113845 -0.055789
v 0.279860 1.298880 0.052068
v 0.279860 1.298880 -0.056313
v 0.719861 1.298880 0.052068
v 0.719861 1.298880 -0.056313
vt 0.000000 1.000000
vt 0.000000 0.906250
vt 0.406250 0.906250
vt 0.406250 1.000000
vt 0.484375 0.000000
vt 0.500000 0.625000
vt 0.031250 0.625000
vt 0.093750 0.000000
vt 0.062500 0.906250
vt 0.062500 1.000000
vt 0.500000 1.000000
vt 0.500000 0.906250
vt 0.500000 1.000000
vt 0.000000 1.000000
vt 0.000000 0.906250
vt 0.500000 0.906250
vt 0.093750 0.000000
vt 0.484375 0.000000
vt 0.500000 0.625000
vt 0.031250 0.625000
vt 1.000000 0.906250
vt 0.500000 0.906250
vt 0.500000 1.000000
vt 1.000000 1.000000
vt 0.437500 1.000000
vt 0.437500 0.906250
vt 0.468750 0.906250
vt 0.468750 1.000000
vt 1.000000 1.000000
vt 0.500000 1.000000
vt 0.500000 0.906250
vt 1.000000 0.906250
vt 0.531250 0.906250
vt 0.531250 1.000000
vt 0.937500 1.000000
vt 0.937500 0.906250
vt 0.031250 0.624713
vt 0.093750 0.000000
vt 0.484375 0.000000
vt 0.500000 0.625000
vt 0.093750 0.906250
vt 0.496848 0.906250
vt 0.500000 1.000000
vt 0.096913 1.000000
vt 0.500000 0.625000
vt 0.031250 0.625000
vt 0.093750 0.000000
vt 0.484375 0.000000
vt 0.500000 1.000000
vt 0.062500 1.000000
vt 0.062500 0.906250
vt 0.500000 0.906250
vt 0.000000 0.906250
vt 0.000000 1.000000
vt 0.500000 0.906250
vt 0.921875 0.000000
vt 1.000000 0.625000
vt 0.562500 0.625000
vt 0.890625 0.000000
vt 0.562500 0.625000
vt 0.890625 0.000000
vt 0.921875 0.000000
vt 1.000000 0.625000
vn -0.3101 -0.9507 -0.0000
vn 0.0001 0.0000 1.0000
vn 0.3399 0.9405 0.0000
vn 0.9188 -0.3948 -0.0000
vn -0.0006 -0.0002 -1.0000
vn -0.9502 -0.3115 -0.0000
vn 0.0000 -1.0000 -0.0000
vn 0.9504 -0.3111 -0.0000
vn 0.0000 1.0000 0.0000
vn 0.0006 -0.0002 -1.0000
vn 0.3101 -0.9507 -0.0000
vn -0.0001 0.0000 1.0000
vn -0.3399 0.9405 0.0000
vn -0.9188 -0.3948 -0.0000
vn 0.0000 -0.0002 1.0000
vn 0.0000 -0.0004 -1.0000
usemtl m_arch
s 1
f 1/1/1 2/2/1 3/3/1 4/4/1
f 2/5/2 5/6/2 6/7/2 3/8/2
f 5/9/3 7/10/3 8/11/3 6/12/3
f 1/13/4 7/14/4 5/15/4 2/16/4
f 12/17/5 11/18/5 16/19/5 15/20/5
f 9/21/6 17/22/6 18/23/6 12/24/6
f 4/25/7 3/26/7 9/27/7 12/28/7
f 4/29/8 20/30/8 19/31/8 3/32/8
f 19/33/9 20/34/9 18/35/9 17/36/9
usemtl m_big_arch
f 7/37/10 1/38/10 4/39/10 8/40/10
f 9/41/11 10/42/11 11/43/11 12/44/11
f 13/45/12 14/46/12 10/47/12 9/48/12
f 15/49/13 16/50/13 14/51/13 13/52/13
f 14/53/14 16/54/14 11/43/14 10/55/14
f 3/56/15 19/57/15 17/58/15 9/59/15
f 20/60/16 4/61/16 12/62/16 18/63/16
