# Blender v3.2.2 OBJ File: ''
# www.blender.org
mtllib generic_arch.mtl
o arch.000
v 0.991300 -0.513585 0.043653
v 1.548673 -0.513585 0.043653
v 1.538272 -0.152754 0.043653
v 0.991300 -0.212335 0.043653
v 0.991300 -0.513585 -0.051723
v 0.991300 -0.212335 -0.051723
v 1.538272 -0.152754 -0.051723
v 1.548673 -0.513585 -0.051723
v 1.536493 -0.133333 0.043653
v 1.452069 0.240835 0.043653
v 0.928666 0.082332 0.043653
v 0.928666 0.082332 -0.051723
v 1.452069 0.240835 -0.051723
v 1.536493 -0.133332 -0.051723
v 1.284544 0.629208 0.043653
v 0.806137 0.357538 0.043653
v 1.444135 0.261921 0.043653
v 1.444135 0.261921 -0.051723
v 0.806137 0.357538 -0.051723
v 1.284544 0.629208 -0.051723
v 1.039458 0.968796 0.043653
v 0.629067 0.601254 0.043653
v 1.276113 0.643508 0.043653
v 0.629067 0.601254 -0.051723
v 1.039458 0.968796 -0.051723
v 1.276113 0.643508 -0.051723
v 0.405194 0.802830 -0.051723
v 0.741815 1.244304 -0.051723
v 1.028507 0.985271 -0.051723
v 0.741815 1.244304 0.043653
v 0.405194 0.802830 0.043653
v 1.028507 0.985270 0.043653
v 0.378056 1.452076 0.043653
v 0.144304 0.953454 0.043653
v 0.718690 1.260240 0.043653
v 0.144304 0.953455 -0.051764
v 0.378056 1.452076 -0.051723
v 0.718690 1.260240 -0.051723
v -0.001113 0.999399 -0.051806
v 0.000828 1.587837 -0.051806
v 0.352436 1.461801 -0.051806
v 0.000828 1.587837 0.043653
v -0.001113 0.999399 0.043653
v 0.352436 1.461801 0.043653
vt 0.000000 1.000000
vt 0.000000 0.500000
vt 0.312500 0.500000
vt 0.250000 1.000000
vt 0.000000 0.000000
vt 0.250000 0.000000
vt 0.312500 0.500000
vt 0.000000 0.500000
vt 0.515625 0.500000
vt 0.500000 0.000000
vt 0.843750 0.000000
vt 0.781250 0.500000
vt 0.514323 0.000000
vt 0.781250 0.000000
vt 0.843750 0.500000
vt 0.500000 0.500000
vt 0.343750 0.000000
vt 0.281250 0.500000
vt 0.015625 0.500000
vt 0.000000 0.003283
vt 0.000000 0.496717
vt 0.015625 0.000000
vt 0.281250 0.000000
vt 0.343750 0.500000
vt 0.875000 0.500000
vt 0.812500 0.000000
vt 0.546875 0.000000
vt 0.531250 0.500000
vt 0.514323 0.500000
vt 0.781250 0.500000
vt 0.843750 1.000000
vt 0.500000 1.000000
vt 0.015625 0.500000
vt 0.281250 0.500000
vt 0.343750 1.000000
vt 0.000000 1.000000
vt 0.343750 1.000000
vt 0.281250 0.500000
vt 0.015625 0.500000
vt 0.000000 1.000000
vt 0.843750 1.000000
vt 0.781250 0.500000
vt 0.515625 0.500000
vt 0.500000 1.000000
vt 0.515625 0.000000
vt 0.500000 0.500000
vt 0.843750 0.500000
vt 0.781250 0.000000
vt 0.500000 0.000000
vt 0.342364 0.000000
vt 0.187500 0.500000
vt 0.500000 0.500000
vt 0.312500 0.500000
vt 0.156250 0.000000
vt 0.000000 0.000000
vt 0.000000 0.500000
vt 0.500000 1.000000
vt 0.500000 0.906250
vt 0.187500 0.906250
vt 0.187500 1.000000
vt 0.000000 1.000000
vt 0.500000 1.000000
vt 0.500000 0.906250
vt 0.000000 0.906250
vt 0.156250 1.000000
vt 0.156250 0.906250
vt 0.500000 0.906250
vt 0.000000 0.906250
vt 0.000000 1.000000
vt 0.500000 1.000000
vt 1.000000 1.000000
vt 0.500000 1.000000
vt 0.500000 0.906250
vt 1.000000 0.906250
vt 1.000000 0.906250
vt 1.000000 1.000000
vt 0.687500 1.000000
vt 0.687500 0.906250
vt 0.500000 0.906250
vt 0.500000 1.000000
vt 0.968750 1.000000
vt 0.968750 0.906250
vt 0.625000 0.906250
vt 0.625000 1.000000
vt 0.000000 0.906250
vt 0.500000 0.906250
vt 0.500000 1.000000
vt 0.000000 1.000000
vt 0.500000 1.000000
vt 0.000000 1.000000
vt 0.000000 0.906250
vt 0.500000 0.906250
vt 0.156250 0.906250
vt 0.156250 1.000000
vt 0.468750 0.906250
vt 0.468750 1.000000
vt 0.156250 1.000000
vt 0.156250 0.906250
vt 0.500000 1.000000
vt 0.500000 0.906250
vt 0.843750 0.906250
vt 0.843750 1.000000
vt 0.812500 1.000000
vt 0.812500 0.906250
vt 1.000000 1.000000
vt 0.500000 1.000000
vt 0.500000 0.906250
vt 1.000000 0.906250
vt 1.000000 0.906250
vt 1.000000 1.000000
vt 0.500000 0.906250
vt 0.500000 1.000000
vt 0.187500 1.000000
vt 0.187500 0.906250
vt 0.500000 1.000000
vt 0.500000 0.906250
vt 0.125000 0.906250
vt 0.125000 1.000000
vt 0.500000 1.000000
vt 0.000000 1.000000
vt 0.000000 0.906250
vt 0.500000 0.906250
vt 0.000000 0.906250
vt 0.500000 1.000000
vt 0.500000 0.906250
vt 0.812500 0.906250
vt 0.812500 1.000000
vt 1.000000 1.000000
vt 1.000000 0.906250
vt 0.625000 0.906250
vt 0.625000 1.000000
vt 1.000000 1.000000
vt 0.500000 1.000000
vt 0.500000 0.906250
vt 1.000000 0.906250
vt 0.500000 1.000000
vt 0.500000 0.906250
vt 0.343750 0.906250
vt 0.343750 1.000000
vt 0.500000 0.906250
vt 0.500000 1.000000
vt 0.125000 1.000000
vt 0.125000 0.906250
vt 0.000000 1.000000
vt 0.000000 0.906250
vt 0.500000 0.906250
vt 0.000000 0.906250
vt 0.000000 1.000000
vt 0.500000 1.000000
vn 0.0000 -0.0000 1.0000
vn 0.0000 0.0000 -1.0000
vn 0.0001 0.0000 -1.0000
vn 0.0001 -0.0001 -1.0000
vn -1.0000 0.0000 0.0000
vn 0.0000 -1.0000 0.0000
vn 0.9996 0.0288 0.0000
vn -0.1083 0.9941 0.0000
vn -0.2898 0.9571 0.0000
vn -0.9781 -0.2079 -0.0000
vn 0.1434 -0.9897 -0.0000
vn 0.9755 0.2201 0.0000
vn 0.3290 -0.9443 -0.0000
vn -0.4938 0.8696 0.0000
vn 0.9172 0.3985 0.0000
vn -0.9135 -0.4067 -0.0000
vn 0.8086 0.5883 0.0000
vn -0.8090 -0.5878 0.0000
vn -0.6671 0.7449 0.0000
vn 0.5198 -0.8543 0.0000
vn -0.6691 -0.7431 0.0000
vn 0.6704 0.7420 0.0000
vn -0.7952 0.6063 0.0000
vn 0.6931 -0.7209 -0.0000
vn -0.5000 -0.8660 -0.0000
vn 0.4907 0.8713 0.0000
vn 0.8249 -0.5653 0.0000
vn -0.9054 0.4245 0.0000
vn -0.3013 -0.9535 -0.0000
vn 0.3374 0.9413 0.0000
vn 0.9254 -0.3789 -0.0000
vn -1.0000 0.0033 0.0000
usemtl m_keystones
s 1
f 1/1/1 2/2/1 3/3/1 4/4/1
f 5/5/2 6/6/2 7/7/2 8/8/2
f 4/9/1 9/10/1 10/11/1 11/12/1
f 6/13/2 12/14/2 13/15/2 14/16/2
f 15/17/1 16/18/1 11/19/1 17/20/1
f 18/21/2 12/22/2 19/23/2 20/24/2
f 21/25/1 22/26/1 16/27/1 23/28/1
f 19/29/2 24/30/2 25/31/2 26/32/2
f 24/33/2 27/34/2 28/35/2 29/36/2
f 30/37/1 31/38/1 22/39/1 32/40/1
f 33/41/1 34/42/1 31/43/1 35/44/1
f 36/45/3 37/46/3 38/47/3 27/48/3
f 36/49/4 39/50/4 40/51/4 41/52/4
f 42/53/1 43/54/1 34/55/1 44/56/1
usemtl m_arch
f 5/57/5 1/58/5 4/59/5 6/60/5
f 5/61/6 8/62/6 2/63/6 1/64/6
f 2/63/7 8/62/7 7/65/7 3/66/7
f 4/67/8 3/68/8 7/69/8 6/70/8
f 11/71/9 10/72/9 13/73/9 12/74/9
f 6/75/10 4/76/10 11/77/10 12/78/10
f 6/75/11 14/79/11 9/80/11 4/76/11
f 9/81/12 14/82/12 13/83/12 10/84/12
f 12/85/13 18/86/13 17/87/13 11/88/13
f 16/89/14 15/90/14 20/91/14 19/92/14
f 17/87/15 18/86/15 20/93/15 15/94/15
f 12/95/16 11/96/16 16/97/16 19/98/16
f 23/99/17 26/100/17 25/101/17 21/102/17
f 19/92/18 16/89/18 22/103/18 24/104/18
f 22/105/19 21/106/19 25/107/19 24/108/19
f 19/92/20 26/109/20 23/110/20 16/89/20
f 24/111/21 22/112/21 31/113/21 27/114/21
f 32/115/22 29/116/22 28/117/22 30/118/22
f 31/119/23 30/120/23 28/121/23 27/122/23
f 24/111/24 29/123/24 32/40/24 22/112/24
f 27/124/25 31/125/25 34/126/25 36/127/25
f 35/128/26 38/129/26 37/130/26 33/131/26
f 27/122/27 38/129/27 35/128/27 31/119/27
f 34/132/28 33/133/28 37/134/28 36/135/28
f 36/136/29 34/137/29 43/138/29 39/139/29
f 44/140/30 41/141/30 40/142/30 42/143/30
f 36/136/31 41/144/31 44/145/31 34/137/31
f 43/146/32 42/147/32 40/148/32 39/149/32
o inner.000
v 1.443992 0.160416 -0.016995
v 0.954210 0.002511 -0.016904
v 0.907548 0.165241 -0.016904
v 1.397330 0.323146 -0.016995
v 1.443992 0.160416 0.013940
v 1.397330 0.323145 0.013940
v 0.954210 0.002511 0.014031
v 0.907548 0.165241 0.014031
v 1.527814 -0.230910 -0.016904
v 1.006110 -0.290699 -0.016904
v 0.982549 -0.123059 -0.016904
v 1.504253 -0.063270 -0.016904
v 1.527814 -0.230910 0.014031
v 1.504253 -0.063271 0.014031
v 1.006110 -0.290699 0.014031
v 0.982549 -0.123060 0.014031
v 1.300069 0.549218 -0.016932
v 0.847242 0.285822 -0.016904
v 0.767766 0.435294 -0.016904
v 1.220594 0.698689 -0.016932
v 0.847242 0.285822 0.014031
v 1.300069 0.549218 0.014003
v 1.220594 0.698690 0.014003
v 0.767766 0.435294 0.014031
v 0.684552 0.538627 0.014255
v 1.068211 0.893663 0.014255
v 0.959395 1.023345 0.014255
v 0.575736 0.668308 0.014255
v 1.068211 0.893663 -0.016680
v 0.684552 0.538627 -0.016680
v 0.575736 0.668308 -0.016680
v 0.959395 1.023345 -0.016680
v 0.779091 1.178273 -0.016696
v 0.473729 0.755042 -0.016696
v 0.340329 0.859265 -0.016696
v 0.645691 1.282497 -0.016696
v 0.779091 1.178273 0.014239
v 0.645691 1.282496 0.014239
v 0.473729 0.755042 0.014239
v 0.340329 0.859265 0.014239
v 0.432732 1.400877 -0.016933
v 0.221849 0.923500 -0.016904
v 0.068423 0.995044 -0.016904
v 0.279306 1.472421 -0.016933
v 0.221849 0.923500 0.014031
v 0.432732 1.400878 0.014002
v 0.279306 1.472422 0.014002
v 0.068423 0.995044 0.014031
vt 0.000000 0.531250
vt 0.000000 0.000000
vt 0.156250 0.000000
vt 0.156250 0.531250
vt 0.000000 1.000000
vt 0.000000 0.968750
vt 0.156250 0.968750
vt 0.156250 1.000000
vt 0.000000 0.000000
vt 0.000000 0.531250
vt 0.156250 0.531250
vt 0.156250 0.000000
vt 0.000000 0.531250
vt 0.000000 0.000000
vt 0.156250 0.000000
vt 0.156250 0.531250
vt 0.000000 0.968750
vt 0.000000 1.000000
vt 0.156250 1.000000
vt 0.156250 0.968750
vt 0.000000 0.000000
vt 0.000000 0.531250
vt 0.156250 0.531250
vt 0.156250 0.000000
vt 0.000000 0.531250
vt 0.000000 0.000000
vt 0.156250 0.000000
vt 0.156250 0.531250
vt 0.000000 0.000000
vt 0.000000 0.531250
vt 0.156250 0.531250
vt 0.156250 0.000000
vt 0.000000 0.968750
vt 0.000000 1.000000
vt 0.156250 1.000000
vt 0.156250 0.968750
vt 0.000000 0.000000
vt 0.000000 0.531250
vt 0.156250 0.531250
vt 0.156250 0.000000
vt 0.000000 0.531250
vt 0.000000 0.000000
vt 0.156250 0.000000
vt 0.156250 0.531250
vt 0.000000 1.000000
vt 0.000000 0.968750
vt 0.156250 0.968750
vt 0.156250 1.000000
vt 0.156250 0.531250
vt 0.156250 0.000000
vt 0.000000 0.000000
vt 0.000000 0.531250
vt 0.000000 1.000000
vt 0.000000 0.968750
vt 0.156250 0.968750
vt 0.156250 1.000000
vt 0.000000 0.000000
vt 0.000000 0.531250
vt 0.156250 0.531250
vt 0.156250 0.000000
vt 0.156250 0.531250
vt 0.156250 0.000000
vt 0.000000 0.000000
vt 0.000000 0.531250
vt 0.000000 0.000000
vt 0.000000 0.531250
vt 0.156250 0.531250
vt 0.156250 0.000000
vt 0.000000 0.968750
vt 0.000000 1.000000
vt 0.156250 1.000000
vt 0.156250 0.968750
vn -0.0002 -0.0000 -1.0000
vn 0.9613 0.2756 0.0000
vn 0.0002 0.0000 1.0000
vn -0.0000 0.0000 -1.0000
vn 0.9903 0.1392 0.0000
vn -0.0000 -0.0000 1.0000
vn 0.8829 0.4695 -0.0000
vn 0.7660 0.6428 0.0000
vn 0.6157 0.7880 0.0000
vn -0.0000 -0.0001 -1.0000
vn 0.0000 0.0001 1.0000
vn 0.4226 0.9063 -0.0000
usemtl m_arch
s 1
f 45/150/33 46/151/33 47/152/33 48/153/33
f 49/154/34 45/155/34 48/156/34 50/157/34
f 51/158/35 49/159/35 50/160/35 52/161/35
f 53/162/36 54/163/36 55/164/36 56/165/36
f 57/166/37 53/167/37 56/168/37 58/169/37
f 59/170/38 57/171/38 58/172/38 60/173/38
f 61/174/36 62/175/36 63/176/36 64/177/36
f 65/178/38 66/179/38 67/180/38 68/181/38
f 66/182/39 61/183/39 64/184/39 67/185/39
f 69/186/38 70/187/38 71/188/38 72/189/38
f 73/190/36 74/191/36 75/192/36 76/193/36
f 70/194/40 73/195/40 76/196/40 71/197/40
f 77/198/36 78/199/36 79/200/36 80/201/36
f 81/202/41 77/203/41 80/204/41 82/205/41
f 83/206/38 81/207/38 82/208/38 84/209/38
f 85/210/42 86/211/42 87/212/42 88/213/42
f 89/214/43 90/215/43 91/216/43 92/217/43
f 90/218/44 85/219/44 88/220/44 91/221/44
