# Blender 4.2.2 LTS
# www.blender.org
mtllib generic_arch.mtl
o tube
v 1.028083 0.723173 -0.020313
v 1.028083 0.723173 0.026562
v -0.028083 0.723173 -0.020313
v -0.028083 0.723173 0.026562
v -0.045408 1.004529 -0.020313
v -0.045408 1.004529 0.026562
v 0.093111 0.842768 0.026562
v 0.093111 0.842768 -0.020313
v 0.244219 0.930010 -0.020313
v -0.027286 1.018434 -0.020313
v 0.152286 1.122110 -0.020313
v -0.027286 1.018434 0.026562
v 0.152286 1.122110 0.026562
v 0.244219 0.930010 0.026562
v 0.412758 0.975169 -0.020313
v 0.173390 1.130852 -0.020313
v 0.373677 1.184518 -0.020313
v 0.173390 1.130852 0.026562
v 0.373677 1.184518 0.026562
v 0.412758 0.975169 0.026562
v 0.587242 0.975169 -0.020313
v 0.396324 1.187500 -0.020313
v 0.603676 1.187500 -0.020313
v 0.396324 1.187500 0.026562
v 0.603676 1.187500 0.026562
v 0.587242 0.975169 0.026562
v 0.755781 0.930010 -0.020313
v 0.626323 1.184518 -0.020313
v 0.826610 1.130852 -0.020313
v 0.626323 1.184518 0.026562
v 0.826610 1.130852 0.026562
v 0.755781 0.930010 0.026562
v 0.906889 0.842768 -0.020313
v 0.847714 1.122110 -0.020313
v 1.027286 1.018434 -0.020313
v 1.027286 1.018434 0.026562
v 0.906889 0.842768 0.026562
v 1.045408 1.004529 -0.020313
v 1.045408 1.004529 0.026562
v -0.192029 0.857908 -0.020313
v -0.192029 0.857908 0.026562
v 1.192029 0.857908 -0.020313
v 1.192029 0.857908 0.026562
v 0.847714 1.122110 0.026562
vn 0.5000 0.8660 -0.0000
vn -0.5000 -0.8660 -0.0000
vn -0.0000 -0.0000 -1.0000
vn -0.0000 -0.0000 1.0000
vn 0.2588 0.9659 -0.0000
vn -0.2588 -0.9659 -0.0000
vn -0.0000 1.0000 -0.0000
vn -0.0000 -1.0000 -0.0000
vn -0.2588 0.9659 -0.0000
vn 0.2588 -0.9659 -0.0000
vn 0.5000 -0.8660 -0.0000
vn -0.7071 0.7071 -0.0000
vn 0.7024 -0.7118 -0.0000
vn -0.7024 -0.7118 -0.0000
vn -0.6349 -0.7726 -0.0000
vn -0.9431 -0.3326 -0.0000
vn -0.9970 -0.0772 -0.0000
vn -0.9830 0.1835 -0.0000
vn -0.9020 0.4317 -0.0000
vn 0.6349 -0.7726 -0.0000
vn 0.8249 -0.5653 -0.0000
vn 0.9431 -0.3326 -0.0000
vn 0.9970 -0.0772 -0.0000
vn 0.9830 0.1835 -0.0000
vn 0.9020 0.4317 -0.0000
vn 0.7596 0.6504 -0.0000
vn 0.7071 0.7071 -0.0000
vn -0.7596 0.6504 -0.0000
vn -0.5000 0.8660 -0.0000
vn -0.8249 -0.5653 -0.0000
vt 0.468750 1.000000
vt 0.250000 1.000000
vt 0.250000 0.937500
vt 0.468750 0.937500
vt 0.312500 0.937500
vt 0.312500 1.000000
vt 0.179688 0.000000
vt 0.007812 0.000000
vt 0.000000 0.218750
vt 0.203125 0.218750
vt 0.000000 0.312500
vt 0.203125 0.312500
vt 0.179688 0.531250
vt 0.007812 0.531250
vt 0.750000 1.000000
vt 0.968750 1.000000
vt 0.968750 0.937500
vt 0.750000 0.937500
vt 1.000000 0.937500
vt 0.843750 0.937500
vt 0.843750 1.000000
vt 1.000000 1.000000
vt 0.742188 0.500000
vt 0.570312 0.500000
vt 0.562500 0.718750
vt 0.765625 0.718750
vt 0.500000 0.312500
vt 0.703125 0.312500
vt 0.679688 0.531250
vt 0.507812 0.531250
vt 0.281250 1.000000
vt 0.500000 1.000000
vt 0.500000 0.937500
vt 0.281250 0.937500
vt 0.195312 0.500000
vt 0.023438 0.500000
vt 0.007812 0.718750
vt 0.210938 0.718750
vt 0.718750 0.937500
vt 0.718750 1.000000
vt 0.343750 1.000000
vt 0.343750 0.937500
vt 0.781250 1.000000
vt 0.781250 0.937500
vt 0.812500 0.937500
vt 0.812500 1.000000
vt 0.679688 0.500000
vt 0.507812 0.500000
vt 0.500000 0.718750
vt 0.703125 0.718750
vt 0.703125 0.218750
vt 0.500000 0.218750
vt 0.507812 0.000000
vt 0.679688 0.000000
vt 0.539062 0.000000
vt 0.710938 0.000000
vt 0.734375 0.218750
vt 0.531250 0.218750
vt 0.875000 1.000000
vt 0.656250 1.000000
vt 0.656250 0.937500
vt 0.875000 0.937500
vt 0.218750 1.000000
vt 0.218750 0.937500
vt 0.000000 0.937500
vt 0.000000 1.000000
vt 0.125000 1.000000
vt 0.125000 0.937500
s 0
usemtl m_arch
f 35/1/1 34/2/1 44/3/1 36/4/1
f 37/4/2 32/5/2 27/6/2 33/1/2
f 29/15/5 28/16/5 30/17/5 31/18/5
f 32/19/6 26/20/6 21/21/6 27/22/6
f 23/31/7 22/32/7 24/33/7 25/34/7
f 26/5/8 20/4/8 15/1/8 21/6/8
f 17/39/9 16/33/9 18/32/9 19/40/9
f 20/21/10 14/22/10 9/19/10 15/20/10
f 14/41/11 7/32/11 8/33/11 9/42/11
f 5/43/12 40/22/12 41/19/12 6/44/12
f 7/45/13 4/17/13 3/16/13 8/46/13
f 2/22/14 37/21/14 33/20/14 1/19/14
f 40/59/15 3/60/15 4/61/15 41/62/15
f 9/44/16 14/43/16 18/22/16 16/19/16
f 15/63/17 20/64/17 24/65/17 22/66/17
f 21/22/18 26/19/18 30/44/18 28/43/18
f 27/67/19 32/68/19 44/42/19 34/41/19
f 42/18/20 43/15/20 2/16/20 1/17/20
f 35/66/21 36/65/21 37/64/21 33/63/21
f 29/60/22 31/61/22 32/62/22 27/59/22
f 23/67/23 25/68/23 26/42/23 21/41/23
f 17/60/24 19/61/24 20/62/24 15/59/24
f 11/65/25 13/66/25 14/63/25 9/64/25
f 5/43/26 6/44/26 7/19/26 8/22/26
f 42/33/27 38/39/27 39/40/27 43/32/27
f 33/60/28 37/61/28 39/62/28 38/59/28
f 11/33/29 10/34/29 12/31/29 13/32/29
f 8/68/30 7/67/30 12/41/30 10/42/30
usemtl m_keystones
f 33/7/3 27/8/3 34/9/3 35/10/3
f 36/11/4 44/12/4 32/13/4 37/14/4
f 27/23/3 21/24/3 28/25/3 29/26/3
f 31/27/4 30/28/4 26/29/4 32/30/4
f 21/35/3 15/36/3 22/37/3 23/38/3
f 25/37/4 24/38/4 20/35/4 26/36/4
f 15/29/3 9/30/3 16/27/3 17/28/3
f 19/25/4 18/26/4 14/23/4 20/24/4
f 9/13/3 8/14/3 10/11/3 11/12/3
f 13/9/4 12/10/4 7/7/4 14/8/4
f 8/47/3 3/48/3 40/49/3 5/50/3
f 6/51/4 41/52/4 4/53/4 7/54/4
f 1/55/3 33/56/3 38/57/3 42/58/3
f 43/49/4 39/50/4 37/47/4 2/48/4
o tube.001
v 0.981963 0.794463 0.004687
v 1.111515 0.924015 0.004687
v 1.111515 0.924015 0.004687
v 0.981963 0.794463 0.004687
v 0.960108 1.044758 0.004687
v 0.960108 1.044758 0.004687
v 0.862632 0.889626 0.004687
v 0.862632 0.889626 0.004687
v 0.785630 1.128782 0.004687
v 0.785630 1.128782 0.004687
v 0.725118 0.955849 0.004687
v 0.725118 0.955849 0.004687
v 0.596828 1.171875 0.004687
v 0.596828 1.171875 0.004687
v 0.576315 0.989813 0.004687
v 0.576315 0.989813 0.004687
v 0.403172 1.171875 0.004687
v 0.403172 1.171875 0.004687
v 0.423685 0.989813 0.004687
v 0.423685 0.989813 0.004687
v 0.214370 1.128782 0.004687
v 0.214370 1.128782 0.004687
v 0.274882 0.955849 0.004687
v 0.274882 0.955849 0.004687
v 0.039892 1.044758 0.004687
v 0.039892 1.044758 0.004687
v 0.137368 0.889626 0.004687
v 0.137368 0.889626 0.004687
v -0.111515 0.924015 0.004687
v -0.111515 0.924015 0.004687
v 0.018037 0.794463 0.004687
v 0.018037 0.794463 0.004687
vn -0.0000 -0.0000 1.0000
vn -0.0000 -0.0000 -1.0000
vt 0.500000 0.937500
vt 0.312500 0.937500
vt 0.312500 1.000000
vt 0.500000 1.000000
vt 0.023438 0.812500
vt 0.164062 0.812500
vt 0.187500 1.000000
vt 0.000000 1.000000
vt 0.500000 0.000000
vt 0.312500 0.000000
vt 0.335938 0.187500
vt 0.476562 0.187500
vt 0.343750 0.937500
vt 0.156250 0.937500
vt 0.156250 1.000000
vt 0.343750 1.000000
vt 0.179688 0.812500
vt 0.320312 0.812500
vt 0.343750 0.000000
vt 0.156250 0.000000
vt 0.179688 0.187500
vt 0.320312 0.187500
vt 0.187500 0.937500
vt 0.000000 0.937500
vt 0.335938 0.812500
vt 0.476562 0.812500
vt 0.187500 0.000000
vt 0.000000 0.000000
vt 0.023438 0.187500
vt 0.164062 0.187500
vt 0.000000 0.000000
vt 0.156250 0.000000
vt 0.312500 0.000000
s 0
usemtl m_arch
f 46/69/31 49/70/31 50/71/31 47/72/31
f 48/73/32 51/74/32 49/75/32 46/76/32
f 47/77/31 50/78/31 52/79/31 45/80/31
f 49/81/32 53/82/32 54/83/32 50/84/32
f 51/85/32 55/86/32 53/84/32 49/83/32
f 50/87/31 54/88/31 56/89/31 52/90/31
f 53/91/31 57/92/31 58/76/31 54/75/31
f 55/93/32 59/94/32 57/72/32 53/71/32
f 54/95/31 58/96/31 60/97/31 56/98/31
f 61/92/32 65/91/32 66/75/32 62/76/32
f 63/97/32 67/98/32 65/95/32 61/99/32
f 62/72/31 66/71/31 68/93/31 64/94/31
f 65/82/31 69/81/31 70/84/31 66/83/31
f 67/89/32 71/90/32 69/87/32 65/100/32
f 66/84/31 70/83/31 72/85/31 68/86/31
f 69/70/32 73/69/32 74/72/32 70/71/32
f 71/79/32 75/80/32 73/77/32 69/101/32
f 70/75/31 74/76/31 76/73/31 72/74/31
