# Blender v3.2.2 OBJ File: ''
# www.blender.org
mtllib generic_arch.mtl
o arch.001
v -0.611468 -0.918571 -0.047477
v 0.008700 -0.974004 -0.047477
v 0.008700 -1.366504 -0.047477
v -0.622647 -1.366504 -0.047477
v -0.622647 -1.366504 0.054654
v -0.611468 -0.918571 0.054654
v 0.008700 -1.366504 0.054654
v 0.008700 -0.974004 0.054654
v -0.608851 -0.891093 -0.047477
v -0.608851 -0.891093 0.054654
v -0.507339 -0.412144 0.054654
v -0.507339 -0.412145 -0.047477
v 0.090306 -0.590081 0.054654
v 0.090306 -0.590081 -0.047477
v -0.499511 -0.390268 0.054654
v 0.249950 -0.231514 0.054654
v -0.289640 0.075661 0.054654
v -0.499511 -0.390268 -0.047477
v -0.289640 0.075661 -0.047477
v 0.249950 -0.231515 -0.047477
v 0.480656 0.086025 -0.047477
v 0.019281 0.489560 -0.047477
v 0.019281 0.489560 0.054654
v 0.480656 0.086025 0.054654
v -0.279849 0.094437 -0.047477
v -0.279849 0.094438 0.054654
v 0.772340 0.348658 -0.047477
v 0.405350 0.838164 -0.047477
v 0.405350 0.838164 0.054654
v 0.772340 0.348659 0.054654
v 0.038672 0.512537 -0.047477
v 0.038672 0.512537 0.054654
v 0.422722 0.855730 0.054654
v 1.112255 0.544909 0.054654
v 0.850535 1.104124 0.054654
v 0.422722 0.855730 -0.047477
v 0.850535 1.104124 -0.047477
v 1.112255 0.544908 -0.047477
vt 0.062500 0.000000
vt 0.125000 0.625000
vt 0.500000 0.625000
vt 0.500000 0.000000
vt 0.500000 0.906250
vt 0.500000 1.000000
vt 0.062500 1.000000
vt 0.062500 0.906250
vt 0.500000 1.000000
vt 0.494811 0.906250
vt 0.093750 0.906493
vt 0.098939 1.000000
vt 0.000000 1.000000
vt 0.000000 0.906250
vt 0.500000 0.906250
vt 0.000000 0.906250
vt 0.000000 1.000000
vt 0.500000 1.000000
vt 1.000000 0.999782
vt 0.993393 0.906250
vt 0.500000 0.906250
vt 0.506606 1.000000
vt 1.000000 1.000000
vt 0.994811 0.906250
vt 0.593750 0.906493
vt 0.598939 1.000000
vt 1.000000 1.000000
vt 0.500000 1.000000
vt 1.000000 0.906250
vt 0.531250 0.000287
vt 0.593750 0.625000
vt 0.984375 0.625000
vt 1.000000 0.000000
vt 1.000000 0.906250
vt 0.500000 0.906250
vt 0.500000 1.000000
vt 1.000000 1.000000
vt 0.500000 0.624713
vt 0.484375 0.000000
vt 0.093750 0.000000
vt 0.031250 0.625000
vt 0.984375 0.000000
vt 0.593750 0.000000
vt 0.531250 0.625000
vt 1.000000 0.625000
vt 0.500000 0.906250
vt 0.000000 0.906250
vt 0.000000 1.000000
vt 0.500000 1.000000
vt 0.031250 0.624713
vt 0.093750 0.000000
vt 0.484375 0.000000
vt 0.500000 0.625000
vt 0.500000 1.000000
vt 0.494811 0.906250
vt 0.093750 0.906493
vt 0.098939 1.000000
vt 0.000000 1.000000
vt 0.500000 1.000000
vt 0.500000 0.906250
vt 0.000000 0.906250
vt 0.492188 0.906250
vt 0.493393 1.000000
vt 1.000000 1.000000
vt 0.500000 1.000000
vt 0.500000 0.906250
vt 1.000000 0.906250
vt 0.507812 0.906250
vt 0.506607 1.000000
vt 1.000000 1.000000
vt 1.000000 0.906250
vt 0.531250 0.624713
vt 0.593750 0.000000
vt 0.984375 0.000000
vt 1.000000 0.625000
vt 1.000000 0.906250
vt 0.500000 0.906250
vt 0.500000 1.000000
vt 1.000000 1.000000
vt 0.994811 0.906250
vt 0.593750 0.906493
vt 0.598939 1.000000
vt 0.500000 0.625000
vt 0.500000 0.000000
vt 0.125000 0.000000
vt 0.062500 0.625000
vt 1.000000 0.624713
vt 0.984375 0.000000
vt 0.593750 0.000000
vt 0.531250 0.625000
vt 0.500000 0.999782
vt 0.493393 0.906250
vt 0.000000 0.906250
vt 0.006606 1.000000
vt 0.500000 1.000000
vt 0.000000 1.000000
vt 0.500000 0.906250
vt 0.500000 0.906250
vt 0.494811 1.000000
vt 0.093750 0.999757
vt 0.098939 0.906250
vt 0.031250 0.000287
vt 0.093750 0.625000
vt 0.484375 0.625000
vt 0.500000 0.000000
vt 0.000000 0.906250
vt 0.000000 1.000000
vt 0.500000 1.000000
vt 1.000000 1.000000
vt 0.500000 1.000000
vt 0.500000 0.906250
vt 1.000000 0.906250
vt 1.000000 0.999782
vt 0.993393 0.906250
vt 0.506606 1.000000
vt 1.000000 0.906250
vt 1.000000 1.000000
vt 0.984375 0.000000
vt 1.000000 0.620894
vt 0.531250 0.625000
vt 0.593750 0.000000
vt 1.000000 0.906250
vt 0.994811 1.000000
vt 0.593750 0.999757
vt 0.598939 0.906250
vt 0.500000 0.624713
vt 0.484375 0.000000
vt 0.093750 0.000000
vt 0.031250 0.625000
vt 0.531250 0.624713
vt 0.593750 0.000000
vt 0.984375 0.000000
vt 1.000000 0.625000
vn 0.0000 0.0000 -1.0000
vn -0.9997 0.0249 0.0000
vn 1.0000 0.0000 0.0000
vn 0.0000 -1.0000 0.0000
vn 0.0890 0.9960 0.0000
vn -0.9783 0.2073 -0.0000
vn 0.9781 -0.2079 0.0000
vn 0.2854 0.9584 -0.0000
vn -0.1331 -0.9911 0.0000
vn 0.0000 -0.0000 1.0000
vn 0.8001 0.5999 -0.0000
vn 0.6691 -0.7431 0.0000
vn -0.6944 -0.7196 0.0000
vn -0.6640 0.7477 0.0000
vn -0.8233 -0.5676 0.0000
vn -0.5021 0.8648 0.0000
vn 0.9057 0.4239 -0.0000
vn 0.5000 -0.8660 0.0000
vn -0.9118 0.4107 0.0000
vn 0.4947 0.8690 -0.0000
vn 0.9135 -0.4067 0.0000
vn -0.3209 -0.9471 0.0000
vn 0.6583 0.7527 0.0000
vn -0.7973 0.6036 -0.0000
vn -0.5240 -0.8517 0.0000
vn 0.8090 -0.5878 0.0000
usemtl m_big_arch
s 1
f 1/1/1 2/2/1 3/3/1 4/4/1
f 4/5/2 5/6/2 6/7/2 1/8/2
f 7/9/3 3/10/3 2/11/3 8/12/3
f 7/13/4 5/6/4 4/5/4 3/14/4
f 2/15/5 1/16/5 6/17/5 8/18/5
f 9/19/6 10/20/6 11/21/6 12/22/6
f 8/23/7 2/24/7 14/25/7 13/26/7
f 14/27/8 12/28/8 11/21/8 13/29/8
f 12/30/1 14/31/1 2/32/1 9/33/1
f 8/34/9 10/35/9 9/36/9 2/37/9
f 15/38/10 13/39/10 16/40/10 17/41/10
f 16/42/10 24/43/10 23/44/10 26/45/10
f 27/46/11 28/47/11 29/48/11 30/49/11
f 28/50/1 27/51/1 21/52/1 31/53/1
f 24/54/12 21/55/12 27/56/12 30/57/12
f 24/58/13 32/59/13 31/60/13 21/61/13
f 31/62/14 32/63/14 29/48/14 28/47/14
f 30/64/15 33/65/15 36/66/15 27/67/15
f 36/68/16 33/69/16 35/70/16 37/71/16
f 37/72/1 38/73/1 27/74/1 36/75/1
f 38/76/17 37/77/17 35/78/17 34/79/17
f 30/64/18 27/80/18 38/81/18 34/82/18
usemtl m_arch
f 5/83/10 7/84/10 8/85/10 6/86/10
f 10/87/10 8/88/10 13/89/10 11/90/10
f 18/91/19 15/92/19 17/93/19 19/94/19
f 20/95/20 19/96/20 17/93/20 16/97/20
f 13/98/21 14/99/21 20/100/21 16/101/21
f 19/102/1 20/103/1 14/104/1 18/105/1
f 13/98/22 15/106/22 18/107/22 14/108/22
f 21/109/23 22/110/23 23/111/23 24/112/23
f 25/113/24 26/114/24 23/111/24 22/115/24
f 16/97/25 26/116/25 25/117/25 20/95/25
f 20/118/1 25/119/1 22/120/1 21/121/1
f 16/122/26 20/123/26 21/124/26 24/125/26
f 32/126/10 24/127/10 30/128/10 29/129/10
f 33/130/10 30/131/10 34/132/10 35/133/10
o arch_inner
v -0.043407 0.391340 0.019579
v 0.391717 -0.007026 0.019579
v 0.638089 0.257176 0.019579
v 0.202965 0.646903 0.019579
v -0.043407 0.391339 -0.012402
v 0.202965 0.646903 -0.012402
v 0.391717 -0.007026 -0.012402
v 0.638089 0.257176 -0.012402
v 0.289526 0.718250 -0.012402
v 0.289526 0.718251 0.019579
v 0.528118 0.899367 0.019579
v 0.528118 0.899366 -0.012402
v 0.645787 0.254068 -0.012402
v 0.884379 0.433860 -0.012402
v 0.645787 0.254068 0.019579
v 0.884379 0.433860 0.019579
v 0.725216 1.023052 0.019579
v 0.977470 0.489142 0.019579
v 1.248229 0.615399 0.019579
v 0.995976 1.153727 0.019579
v 0.977470 0.489142 -0.012402
v 0.725216 1.023052 -0.012402
v 0.995976 1.153726 -0.012402
v 1.248229 0.615399 -0.012402
v 0.153346 -0.367457 -0.012402
v -0.331638 -0.042222 -0.012402
v -0.146914 0.255065 -0.012402
v 0.350491 -0.062419 -0.012402
v -0.331638 -0.042222 0.019579
v -0.146914 0.255065 0.019579
v 0.153346 -0.367457 0.019579
v 0.350491 -0.062419 0.019579
v 0.041320 -0.713094 -0.012402
v -0.514563 -0.532587 -0.012402
v -0.397111 -0.189018 -0.012402
v -0.514563 -0.532587 0.019579
v -0.397111 -0.189017 0.019579
v 0.041320 -0.713094 0.019579
v -0.607972 -1.065338 0.019579
v -0.033680 -1.166602 0.019579
v 0.029050 -0.810840 0.019579
v -0.545242 -0.709577 0.019579
v -0.033680 -1.166602 -0.012402
v -0.607972 -1.065339 -0.012402
v -0.545242 -0.709577 -0.012402
v 0.029050 -0.810840 -0.012402
vt 0.000000 0.591264
vt 0.000000 0.001507
vt 0.310544 0.000000
vt 0.312500 0.593750
vt 0.500000 1.000000
vt 0.500000 0.968750
vt 0.125000 0.968750
vt 0.125000 1.000000
vt 0.000000 0.002486
vt 0.000000 0.592243
vt 0.310544 0.593750
vt 0.312500 0.000000
vt 0.500000 0.968750
vt 0.500000 1.000000
vt 0.125000 1.000000
vt 0.125000 0.968750
vt 0.000000 0.002486
vt 0.000000 0.592243
vt 0.310544 0.593750
vt 0.312500 0.000000
vt 0.312500 0.591264
vt 0.312500 0.001507
vt 0.001956 0.000000
vt 0.000000 0.593750
vt 0.312500 0.591264
vt 0.312500 0.001507
vt 0.001956 0.000000
vt 0.000000 0.593750
vt 0.000000 0.002486
vt 0.000000 0.592243
vt 0.310544 0.593750
vt 0.312500 0.000000
vt 0.500000 0.968750
vt 0.500000 1.000000
vt 0.125000 1.000000
vt 0.125000 0.968750
vt 0.000000 0.591264
vt 0.000000 0.001507
vt 0.310544 0.000000
vt 0.312500 0.593750
vt 0.500000 0.968750
vt 0.500000 1.000000
vt 0.125000 1.000000
vt 0.125000 0.968750
vt 0.000000 0.591264
vt 0.000000 0.001507
vt 0.310544 0.000000
vt 0.312500 0.593750
vt 0.000000 0.591264
vt 0.000000 0.001507
vt 0.310544 0.000000
vt 0.312500 0.593750
vt 0.500000 1.000000
vt 0.500000 0.968750
vt 0.125000 0.968750
vt 0.125000 1.000000
vt 0.000000 0.591264
vt 0.000000 0.001507
vt 0.310544 0.000000
vt 0.312500 0.593750
vt 0.000000 0.591264
vt 0.000000 0.001507
vt 0.310544 0.000000
vt 0.312500 0.593750
vt 0.000000 0.591264
vt 0.000000 0.001507
vt 0.310544 0.000000
vt 0.312500 0.593750
vt 0.500000 0.968750
vt 0.500000 1.000000
vt 0.125000 1.000000
vt 0.125000 0.968750
vn 0.0000 -0.0000 1.0000
vn -0.7199 0.6940 -0.0000
vn 0.0000 0.0000 -1.0000
vn -0.6046 0.7965 -0.0000
vn -0.4346 0.9006 -0.0000
vn -0.8494 0.5278 0.0000
vn -0.9462 0.3235 -0.0000
vn -0.9848 0.1736 -0.0000
usemtl m_arch
s 1
f 39/134/27 40/135/27 41/136/27 42/137/27
f 43/138/28 39/139/28 42/140/28 44/141/28
f 45/142/29 43/143/29 44/144/29 46/145/29
f 47/146/30 48/147/30 49/148/30 50/149/30
f 51/150/29 47/151/29 50/152/29 52/153/29
f 48/154/27 53/155/27 54/156/27 49/157/27
f 55/158/27 56/159/27 57/160/27 58/161/27
f 59/162/29 60/163/29 61/164/29 62/165/29
f 60/166/31 55/167/31 58/168/31 61/169/31
f 63/170/29 64/171/29 65/172/29 66/173/29
f 64/174/32 67/175/32 68/176/32 65/177/32
f 67/178/27 69/179/27 70/180/27 68/181/27
f 71/182/29 72/183/29 73/184/29 63/185/29
f 72/186/33 74/187/33 75/188/33 73/189/33
f 74/190/27 76/191/27 69/192/27 75/193/27
f 77/194/27 78/195/27 79/196/27 80/197/27
f 81/198/29 82/199/29 83/200/29 84/201/29
f 82/202/34 77/203/34 80/204/34 83/205/34
