# Blender 4.2.2 LTS
# www.blender.org
mtllib generic_arch.mtl
o arch
v 0.404385 0.996314 -0.039063
v 0.404385 0.996314 0.039062
v 0.374126 1.218750 0.039062
v 0.374126 1.218750 -0.039063
v 0.227712 0.923133 0.039062
v 0.114633 1.117058 0.039062
v 0.347218 1.213398 0.039062
v 0.114633 1.117058 -0.039063
v 0.347218 1.213398 -0.039063
v 0.092492 0.787913 0.039062
v -0.086191 0.923803 0.039062
v 0.091822 1.101816 0.039062
v -0.086191 0.923803 -0.039063
v 0.019311 0.611240 0.039062
v -0.197773 0.668407 0.039062
v -0.101433 0.900992 0.039062
v -0.197773 0.668407 -0.039063
v -0.101433 0.900992 -0.039063
v 0.019311 0.611240 -0.039063
v 0.017475 0.421875 -0.039063
v 0.017475 0.421875 0.039062
v -0.203125 0.641499 -0.039063
v -0.203125 0.421875 -0.039063
v -0.203125 0.641499 0.039062
v -0.203125 0.421875 0.039062
v 0.595615 0.996314 -0.039063
v 0.595615 0.996314 0.039062
v 0.625874 1.218750 0.039062
v 0.625874 1.218750 -0.039063
v 0.772288 0.923133 0.039062
v 0.885367 1.117058 0.039062
v 0.652782 1.213398 0.039062
v 0.885367 1.117058 -0.039063
v 0.652782 1.213398 -0.039063
v 0.907508 0.787913 0.039062
v 1.086191 0.923803 0.039062
v 0.908178 1.101816 0.039062
v 1.086191 0.923803 -0.039063
v 0.908178 1.101816 -0.039063
v 0.980689 0.611240 0.039062
v 1.197773 0.668407 0.039062
v 1.101433 0.900992 0.039062
v 1.197773 0.668407 -0.039063
v 1.101433 0.900992 -0.039063
v 0.980689 0.611240 -0.039063
v 0.982525 0.421875 -0.039063
v 0.982525 0.421875 0.039062
v 1.203125 0.641499 -0.039063
v 1.203125 0.421875 -0.039063
v 1.203125 0.641499 0.039062
v 1.203125 0.421875 0.039062
v 0.907508 0.787913 -0.039063
v 0.772288 0.923133 -0.039063
v 0.227712 0.923133 -0.039063
v 0.091822 1.101816 -0.039063
v 0.092492 0.787913 -0.039063
vn -0.3827 0.9239 -0.0000
vn 0.3827 -0.9239 -0.0000
vn -0.0000 -0.0000 1.0000
vn -0.0000 -0.0000 -1.0000
vn -0.7071 0.7071 -0.0000
vn 0.7071 -0.7071 -0.0000
vn -0.9239 0.3827 -0.0000
vn 0.9239 -0.3827 -0.0000
vn -1.0000 -0.0000 -0.0000
vn 1.0000 -0.0097 -0.0000
vn -0.0000 -1.0000 -0.0000
vn -0.2547 -0.9670 -0.0000
vn -0.6053 -0.7960 -0.0000
vn -0.8639 -0.5037 -0.0000
vn 0.9670 0.2547 -0.0000
vn 0.7960 0.6053 -0.0000
vn 0.5037 0.8639 -0.0000
vn 0.1348 0.9909 -0.0000
vn 0.3827 0.9239 -0.0000
vn -0.3827 -0.9239 -0.0000
vn 0.7071 0.7071 -0.0000
vn -0.7071 -0.7071 -0.0000
vn 0.9239 0.3827 -0.0000
vn -0.9239 -0.3827 -0.0000
vn 1.0000 -0.0000 -0.0000
vn -1.0000 -0.0097 -0.0000
vn -0.0000 1.0000 -0.0000
vn 0.2547 -0.9670 -0.0000
vn 0.6053 -0.7960 -0.0000
vn 0.8639 -0.5037 -0.0000
vn 0.9909 -0.1348 -0.0000
vn -0.9670 0.2547 -0.0000
vn -0.7960 0.6053 -0.0000
vn -0.5037 0.8639 -0.0000
vn -0.1348 0.9909 -0.0000
vn -0.9909 -0.1348 -0.0000
vt 1.000000 1.000000
vt 1.000000 0.937500
vt 0.750000 0.937500
vt 0.750000 1.000000
vt 0.687500 0.937500
vt 0.687500 1.000000
vt 0.500000 1.000000
vt 0.500000 0.937500
vt 0.750000 0.312500
vt 0.726562 0.531250
vt 0.523438 0.531250
vt 0.500000 0.312503
vt 0.500000 0.312500
vt 0.250000 0.937500
vt 0.250000 1.000000
vt 0.312500 0.937500
vt 0.312500 1.000000
vt 0.000000 0.312500
vt 0.023438 0.531250
vt 0.226562 0.531250
vt 0.250000 0.312503
vt 0.812500 1.000000
vt 0.812500 0.937500
vt 0.531250 0.218750
vt 0.554688 0.000000
vt 0.757812 0.000000
vt 0.781250 0.218747
vt 0.523438 0.500000
vt 0.500000 0.718750
vt 0.750000 0.718750
vt 0.726562 0.500000
vt 0.281250 0.937500
vt 0.281250 1.000000
vt 0.218750 0.000000
vt 0.001807 0.000000
vt 0.000000 0.187500
vt 0.218750 0.218750
vt 0.000000 0.528713
vt 0.001842 0.312500
vt 0.218750 0.313788
vt 0.187500 0.531250
vt 0.781250 1.000000
vt 0.781250 0.937500
vt 0.000000 0.937500
vt 0.000000 1.000000
vt 0.218750 1.000000
vt 0.218750 0.937500
vt 0.718750 0.937500
vt 0.718750 1.000000
vt 0.781250 0.218750
vt 0.226562 0.000000
vt 0.023438 0.000000
vt 0.000000 0.218750
vt 0.250000 0.218750
vt 0.000000 0.687500
vt 0.000000 0.502132
vt 0.216657 0.500000
vt 0.218750 0.718750
vt 0.226562 0.500000
vt 0.023438 0.500000
vt 0.000000 0.718750
vt 0.250000 0.718750
vt 0.843750 1.000000
vt 0.625000 1.000000
vt 0.625000 0.937500
vt 0.843750 0.937500
vt 0.968750 0.937500
vt 0.968750 1.000000
vt 0.250000 0.312500
vt 0.312500 0.718750
vt 0.062500 0.718750
vt 0.085938 0.500000
vt 0.289062 0.500000
s 0
usemtl m_arch
f 8/1/1 6/2/1 7/3/1 9/4/1
f 5/5/2 54/6/2 1/7/2 2/8/2
f 13/7/5 11/8/5 12/14/5 55/15/5
f 10/7/6 56/8/6 54/16/6 5/17/6
f 17/1/7 15/2/7 16/3/7 18/4/7
f 14/2/8 19/1/8 56/22/8 10/23/8
f 23/7/9 25/8/9 24/32/9 22/33/9
f 21/8/10 20/7/10 19/17/10 14/16/10
f 23/7/11 20/33/11 21/32/11 25/8/11
f 15/2/12 17/1/12 19/42/12 14/43/12
f 11/44/13 13/45/13 56/46/13 10/47/13
f 6/2/14 8/1/14 54/42/14 5/43/14
f 9/7/15 7/8/15 2/48/15 1/49/15
f 55/45/16 12/44/16 5/47/16 54/46/16
f 18/49/17 16/48/17 10/8/17 56/7/17
f 22/45/18 24/44/18 14/47/18 19/46/18
f 32/2/19 31/3/19 33/4/19 34/1/19
f 26/23/20 53/2/20 30/1/20 27/22/20
f 37/14/21 36/8/21 38/7/21 39/15/21
f 53/17/22 52/7/22 35/8/22 30/16/22
f 42/3/23 41/2/23 43/1/23 44/4/23
f 52/22/24 45/1/24 40/2/24 35/23/24
f 50/33/25 51/7/25 49/8/25 48/32/25
f 45/16/26 46/8/26 47/7/26 40/17/26
f 3/8/27 28/14/27 29/15/27 4/7/27
f 1/17/11 26/7/11 27/8/11 2/16/11
f 47/33/11 46/32/11 49/8/11 51/7/11
f 45/49/28 43/7/28 41/8/28 40/48/28
f 52/63/29 38/64/29 36/65/29 35/66/29
f 53/49/30 33/7/30 31/8/30 30/48/30
f 26/45/31 29/46/31 28/47/31 27/44/31
f 27/2/32 32/43/32 34/42/32 26/1/32
f 30/47/33 37/44/33 39/45/33 53/46/33
f 35/67/34 42/3/34 44/4/34 52/68/34
f 40/46/35 50/45/35 48/44/35 45/47/35
f 3/44/36 4/45/36 1/46/36 2/47/36
usemtl m_keystones
f 6/9/3 5/10/3 2/11/3 7/12/3
f 54/11/4 8/13/4 9/9/4 1/10/4
f 11/18/3 10/19/3 5/20/3 12/21/3
f 15/24/3 14/25/3 10/26/3 16/27/3
f 19/28/4 17/29/4 18/30/4 56/31/4
f 25/34/3 21/35/3 14/36/3 24/37/3
f 20/38/4 23/39/4 22/40/4 19/41/4
f 27/31/3 30/28/3 31/29/3 32/30/3
f 34/24/4 33/50/4 53/26/4 26/25/4
f 30/51/3 35/52/3 36/53/3 37/54/3
f 35/10/3 40/11/3 41/13/3 42/9/3
f 44/30/4 43/29/4 45/28/4 52/31/4
f 40/55/3 47/56/3 51/57/3 50/58/3
f 48/37/4 49/34/4 46/35/4 45/36/4
f 2/59/3 27/60/3 28/61/3 3/62/3
f 4/61/4 29/62/4 26/59/4 1/60/4
f 56/19/4 13/18/4 55/69/4 54/20/4
f 39/70/4 38/71/4 52/72/4 53/73/4
o arch_inner
v 0.614723 1.203125 0.029687
v 0.614723 1.203125 -0.029688
v 0.582414 1.009506 0.029687
v 0.582414 1.009506 -0.029688
v 0.831738 1.128624 0.029687
v 0.831738 1.128624 -0.029688
v 0.738312 0.955987 0.029687
v 0.738312 0.955987 -0.029688
v 1.012804 0.987695 0.029687
v 1.012804 0.987695 -0.029688
v 0.868385 0.854747 0.029687
v 0.868385 0.854747 -0.029688
v 1.138300 0.795609 0.029687
v 1.138300 0.795609 -0.029688
v 0.958537 0.716758 0.029687
v 0.958537 0.716758 -0.029688
v 1.194626 0.573183 0.029687
v 1.194626 0.573183 -0.029688
v 0.999000 0.556973 0.029687
v 0.999000 0.556973 -0.029688
v 0.385277 1.203125 0.029687
v 0.385277 1.203125 -0.029688
v 0.417586 1.009506 0.029687
v 0.417586 1.009506 -0.029688
v 0.168262 1.128624 0.029687
v 0.168262 1.128624 -0.029688
v 0.261688 0.955987 0.029687
v 0.261688 0.955987 -0.029688
v -0.012804 0.987695 0.029687
v -0.012804 0.987695 -0.029688
v 0.131615 0.854747 0.029687
v 0.131615 0.854747 -0.029688
v -0.138300 0.795609 0.029687
v -0.138300 0.795609 -0.029688
v 0.041463 0.716758 0.029687
v 0.041463 0.716758 -0.029688
v -0.194626 0.573183 0.029687
v -0.194626 0.573183 -0.029688
v 0.001000 0.556973 0.029687
v 0.001000 0.556973 -0.029688
vn 0.3247 0.9458 -0.0000
vn -0.0000 -0.0000 1.0000
vn -0.0000 -0.0000 -1.0000
vn 0.6142 0.7891 -0.0000
vn 0.8372 0.5469 -0.0000
vn 0.9694 0.2455 -0.0000
vn -0.3247 0.9458 -0.0000
vn -0.6142 0.7891 -0.0000
vn -0.8372 0.5469 -0.0000
vn -0.9694 0.2455 -0.0000
vt 0.250000 0.937500
vt 0.468750 0.937500
vt 0.468750 1.000000
vt 0.250000 1.000000
vt 0.031250 0.187500
vt 0.187500 0.187500
vt 0.218750 0.000001
vt 0.000000 0.000000
vt 0.281250 0.812501
vt 0.437500 0.812500
vt 0.000000 0.937500
vt 0.218750 0.937500
vt 0.218750 1.000000
vt 0.000000 1.000000
vt 0.250000 0.187500
vt 0.406250 0.187500
vt 0.437500 0.000001
vt 0.218750 0.000000
vt 0.187500 0.812501
vt 0.031250 0.812500
vt 0.312500 0.937500
vt 0.093750 0.937500
vt 0.093750 1.000000
vt 0.312500 1.000000
vt 0.156250 0.187500
vt 0.312500 0.187500
vt 0.343750 0.000001
vt 0.125000 0.000000
vt 0.125000 1.000000
vt 0.343750 1.000000
vt 0.312500 0.812501
vt 0.156250 0.812500
vt 0.437500 0.937500
vt 0.437500 1.000000
vt 0.468750 0.187500
vt 0.500000 0.000001
vt 0.281250 0.000000
vt 0.281250 1.000000
vt 0.500000 1.000000
vt 0.468750 0.812501
vt 0.312500 0.812500
vt 0.375000 1.000000
vt 0.375000 0.937500
vt 0.156250 0.937500
vt 0.156250 1.000000
vt 0.250000 0.999999
vt 0.281250 0.812500
vt 0.187500 0.187499
vt 0.218750 0.999999
vt 0.187500 0.812500
vt 0.406250 0.187499
vt 0.437500 0.000000
vt 0.343750 0.999999
vt 0.156250 0.187499
vt 0.343750 0.000000
vt 0.125000 0.937500
vt 0.343750 0.937500
vt 0.500000 0.999999
vt 0.468750 0.812500
vt 0.468750 0.187499
vt 0.500000 0.000000
s 0
usemtl m_arch
f 57/74/37 61/75/37 62/76/37 58/77/37
f 59/78/38 63/79/38 61/80/38 57/81/38
f 58/76/39 62/77/39 64/82/39 60/83/39
f 61/84/40 65/85/40 66/86/40 62/87/40
f 63/88/38 67/89/38 65/90/38 61/91/38
f 62/87/39 66/86/39 68/92/39 64/93/39
f 65/94/41 69/95/41 70/96/41 66/97/41
f 67/98/38 71/99/38 69/100/38 65/101/38
f 66/102/39 70/103/39 72/104/39 68/105/39
f 69/85/42 73/106/42 74/107/42 70/86/42
f 71/99/38 75/108/38 73/109/38 69/110/38
f 70/111/39 74/112/39 76/113/39 72/114/39
f 82/115/43 81/116/43 77/117/43 78/118/43
f 81/119/38 83/120/38 79/83/38 77/76/38
f 84/121/39 82/91/39 78/81/39 80/78/39
f 86/87/44 85/84/44 81/85/44 82/86/44
f 85/122/38 87/123/38 83/93/38 81/87/38
f 88/124/39 86/125/39 82/91/39 84/88/39
f 90/76/45 89/75/45 85/74/45 86/77/45
f 89/126/38 91/114/38 87/105/38 85/102/38
f 92/127/39 90/101/39 86/128/39 88/99/39
f 94/102/46 93/129/46 89/130/46 90/103/46
f 93/131/38 95/132/38 91/114/38 89/111/38
f 96/133/39 94/134/39 90/110/39 92/99/39
