# Blender v3.2.2 OBJ File: ''
# www.blender.org
mtllib brick_arch.mtl
o mortar
v 0.592471 0.444918 -0.009338
v 0.529971 -0.030667 -0.009330
v 0.469326 -0.030667 -0.009330
v 0.407178 0.444918 -0.009353
v 0.529971 -0.030668 0.009357
v 0.592471 0.444918 0.009366
v 0.407178 0.444918 0.009352
v 0.469326 -0.030668 0.009357
v 1.491544 -1.044531 -0.009347
v 1.015958 -1.044531 -0.009347
v 1.018885 -0.849943 -0.009346
v 1.491544 -0.812744 -0.009346
v 1.015958 -1.044531 0.009375
v 1.018885 -0.849943 0.009375
v 1.491544 -1.044531 0.009375
v 1.491544 -0.812744 0.009375
v 0.994264 -0.694491 -0.009346
v 1.455284 -0.583810 -0.009346
v 1.455284 -0.583810 0.009375
v 0.945629 -0.544805 -0.009346
v 1.383658 -0.363367 -0.009346
v 1.383658 -0.363367 0.009375
v 0.874175 -0.404570 -0.009346
v 1.278429 -0.156843 -0.009346
v 1.278429 -0.156843 0.009375
v 0.775898 -0.271268 -0.009346
v 1.142187 0.030677 -0.009346
v 1.142187 0.030677 0.009375
v 0.667090 -0.151889 -0.009346
v 0.984109 0.200196 -0.009346
v 0.984109 0.200196 0.009375
v 0.547931 -0.062096 -0.009346
v 0.798995 0.339689 -0.009346
v 0.798995 0.339689 0.009375
v 0.501559 -0.041332 -0.009346
v 0.994264 -0.694491 0.009375
v 0.945629 -0.544805 0.009375
v 0.874175 -0.404570 0.009375
v 0.775898 -0.271268 0.009375
v 0.667090 -0.151889 0.009375
v 0.547931 -0.062096 0.009375
v 0.501559 -0.041332 0.009375
v -0.491544 -1.044531 0.009346
v -0.015958 -1.044531 0.009346
v -0.018886 -0.849943 0.009346
v -0.491544 -0.812744 0.009346
v -0.015958 -1.044531 -0.009375
v -0.018886 -0.849943 -0.009375
v -0.491544 -1.044531 -0.009375
v -0.491544 -0.812744 -0.009375
v 0.005735 -0.694491 0.009346
v -0.455284 -0.583810 0.009346
v -0.455284 -0.583810 -0.009375
v 0.054371 -0.544805 0.009346
v -0.383658 -0.363367 0.009346
v -0.383658 -0.363367 -0.009375
v 0.125825 -0.404570 0.009346
v -0.278429 -0.156843 0.009346
v -0.278429 -0.156843 -0.009375
v 0.224102 -0.271268 0.009346
v -0.142187 0.030677 0.009346
v -0.142187 0.030677 -0.009375
v 0.332909 -0.151889 0.009346
v 0.015891 0.200196 0.009346
v 0.015891 0.200196 -0.009375
v 0.452069 -0.062096 0.009346
v 0.201005 0.339689 0.009346
v 0.201005 0.339689 -0.009375
v 0.498441 -0.041332 0.009346
v 0.005735 -0.694491 -0.009375
v 0.054371 -0.544805 -0.009375
v 0.125825 -0.404570 -0.009375
v 0.224102 -0.271268 -0.009375
v 0.332909 -0.151889 -0.009375
v 0.452069 -0.062096 -0.009375
v 0.498441 -0.041332 -0.009375
vt 0.000000 0.812500
vt 0.468750 0.875000
vt 0.468750 0.937500
vt 0.000000 1.000000
vt 0.468750 0.937500
vt 0.000000 1.000000
vt 0.000000 0.812500
vt 0.468750 0.875000
vt 0.625000 1.000000
vt 0.625000 0.968750
vt 0.406250 0.968750
vt 0.406250 1.000000
vt 1.000000 0.000000
vt 0.531250 0.000000
vt 0.531250 0.187500
vt 1.000000 0.218750
vt 0.187500 1.000000
vt 0.187500 0.968750
vt 0.000000 0.968750
vt 0.000000 1.000000
vt 0.875000 1.000000
vt 0.875000 0.968750
vt 0.656250 0.968750
vt 0.656250 1.000000
vt 0.999997 0.187500
vt 0.531250 0.218750
vt 0.531250 0.375000
vt 1.000000 0.406250
vt 0.437500 0.968750
vt 0.437500 1.000000
vt 0.999997 0.375000
vt 0.531250 0.406250
vt 0.531250 0.562500
vt 1.000000 0.593750
vt 0.218750 0.968750
vt 0.218750 1.000000
vt 0.999997 0.562500
vt 0.531250 0.593750
vt 0.531250 0.750000
vt 1.000000 0.781250
vt 0.000000 0.968750
vt 0.000000 1.000000
vt 0.999997 0.750000
vt 0.531250 0.781250
vt 0.531250 0.937500
vt 1.000000 0.968750
vt 1.000000 1.000000
vt 1.000000 0.968750
vt 0.781250 0.968750
vt 0.781250 1.000000
vt 0.999997 0.187500
vt 0.531250 0.218750
vt 0.531250 0.375000
vt 1.000000 0.406250
vt 0.562500 0.968750
vt 0.562500 1.000000
vt 0.999997 0.375000
vt 0.531250 0.406250
vt 0.531250 0.562500
vt 1.000000 0.593750
vt 0.343750 0.968750
vt 0.343750 1.000000
vt 1.000000 0.000000
vt 0.531250 0.000000
vt 0.531250 0.046875
vt 1.000000 0.218750
vt 0.125000 0.968750
vt 0.125000 1.000000
vt 0.000000 0.968750
vt 0.468750 0.968750
vt 0.468750 1.000000
vt 0.000000 1.000000
vt 0.468750 0.187500
vt 0.468750 0.000000
vt 0.000000 0.000000
vt 0.000000 0.218750
vt 0.468750 0.375000
vt 0.468750 0.218750
vt 0.000003 0.187500
vt 0.000000 0.406250
vt 0.468750 0.562500
vt 0.468750 0.406250
vt 0.000003 0.375000
vt 0.000000 0.593750
vt 0.468750 0.750000
vt 0.468750 0.593750
vt 0.000003 0.562500
vt 0.000000 0.781250
vt 0.468750 0.937500
vt 0.468750 0.781250
vt 0.000003 0.750000
vt 0.000000 0.968750
vt 0.468750 0.375000
vt 0.468750 0.218750
vt 0.000003 0.187500
vt 0.000000 0.406250
vt 0.468750 0.562500
vt 0.468750 0.406250
vt 0.000003 0.375000
vt 0.000000 0.593750
vt 0.531250 0.046875
vt 0.531250 0.000000
vt 1.000000 0.000000
vt 1.000000 0.218750
vt 1.000000 0.000000
vt 0.531250 0.000000
vt 0.531250 0.187500
vt 1.000000 0.218750
vt 1.000000 1.000000
vt 1.000000 0.968750
vt 0.812500 0.968750
vt 0.812500 1.000000
vt 0.875000 1.000000
vt 0.875000 0.968750
vt 0.656250 0.968750
vt 0.656250 1.000000
vt 0.999997 0.187500
vt 0.531250 0.218750
vt 0.531250 0.375000
vt 1.000000 0.406250
vt 0.437500 0.968750
vt 0.437500 1.000000
vt 0.999997 0.375000
vt 0.531250 0.406250
vt 0.531250 0.562500
vt 1.000000 0.593750
vt 0.218750 0.968750
vt 0.218750 1.000000
vt 0.999997 0.562500
vt 0.531250 0.593750
vt 0.531250 0.750000
vt 1.000000 0.781250
vt 0.000000 0.968750
vt 0.000000 1.000000
vt 0.999997 0.750000
vt 0.531250 0.781250
vt 0.531250 0.937500
vt 1.000000 0.968750
vt 1.000000 1.000000
vt 1.000000 0.968750
vt 0.781250 0.968750
vt 0.781250 1.000000
vt 0.999997 0.187500
vt 0.531250 0.218750
vt 0.531250 0.375000
vt 1.000000 0.406250
vt 0.562500 0.968750
vt 0.562500 1.000000
vt 0.999997 0.375000
vt 0.531250 0.406250
vt 0.531250 0.562500
vt 1.000000 0.593750
vt 0.343750 0.968750
vt 0.343750 1.000000
vt 1.000000 0.000000
vt 0.531250 0.000000
vt 0.531250 0.046875
vt 1.000000 0.218750
vt 0.125000 0.968750
vt 0.125000 1.000000
vt 0.531250 0.968750
vt 1.000000 0.968750
vt 1.000000 1.000000
vt 0.531250 1.000000
vt 0.468750 0.187500
vt 0.468750 0.000000
vt 0.000000 0.000000
vt 0.000000 0.218750
vt 0.468750 0.375000
vt 0.468750 0.218750
vt 0.000003 0.187500
vt 0.000000 0.406250
vt 0.468750 0.562500
vt 0.468750 0.406250
vt 0.000003 0.375000
vt 0.000000 0.593750
vt 0.468750 0.750000
vt 0.468750 0.593750
vt 0.000003 0.562500
vt 0.000000 0.781250
vt 0.468750 0.937500
vt 0.468750 0.781250
vt 0.000003 0.750000
vt 0.000000 0.968750
vt 0.468750 0.375000
vt 0.468750 0.218750
vt 0.000003 0.187500
vt 0.000000 0.406250
vt 0.468750 0.562500
vt 0.468750 0.406250
vt 0.000003 0.375000
vt 0.000000 0.593750
vt 0.531250 0.046875
vt 0.531250 0.000000
vt 1.000000 0.000000
vt 1.000000 0.218750
vn 0.0001 -0.0000 -1.0000
vn -0.0001 -0.0000 1.0000
vn 0.0000 1.0000 0.0000
vn 0.0000 0.0000 -1.0000
vn -0.9999 0.0150 0.0000
vn 1.0000 0.0000 0.0000
vn 0.9877 0.1564 0.0000
vn 0.9511 0.3090 0.0000
vn 0.8910 0.4540 0.0000
vn 0.8090 0.5878 0.0000
vn 0.7314 0.6820 0.0000
vn 0.6018 0.7986 0.0000
vn 0.4540 0.8910 0.0000
vn 0.0000 -1.0000 0.0000
vn -0.0000 -0.0000 1.0000
vn 0.9999 0.0150 0.0000
vn -1.0000 0.0000 0.0000
vn -0.9877 0.1564 0.0000
vn -0.9511 0.3090 0.0000
vn -0.8910 0.4540 0.0000
vn -0.8090 0.5878 0.0000
vn -0.7314 0.6820 0.0000
vn -0.6018 0.7986 0.0000
vn -0.4546 0.8907 0.0000
usemtl m_mortar
s 1
f 1/1/1 2/2/1 3/3/1 4/4/1
f 5/5/2 6/6/2 7/7/2 8/8/2
f 6/9/3 1/10/3 4/11/3 7/12/3
f 9/13/4 10/14/4 11/15/4 12/16/4
f 10/17/5 13/18/5 14/19/5 11/20/5
f 15/21/6 9/22/6 12/23/6 16/24/6
f 12/25/4 11/26/4 17/27/4 18/28/4
f 16/24/7 12/23/7 18/29/7 19/30/7
f 18/31/4 17/32/4 20/33/4 21/34/4
f 19/30/8 18/29/8 21/35/8 22/36/8
f 21/37/4 20/38/4 23/39/4 24/40/4
f 22/36/9 21/35/9 24/41/9 25/42/9
f 24/43/4 23/44/4 26/45/4 27/46/4
f 25/47/10 24/48/10 27/49/10 28/50/10
f 27/51/4 26/52/4 29/53/4 30/54/4
f 28/50/11 27/49/11 30/55/11 31/56/11
f 30/57/4 29/58/4 32/59/4 33/60/4
f 31/56/12 30/55/12 33/61/12 34/62/12
f 33/63/4 32/64/4 35/65/4 1/66/4
f 34/62/13 33/61/13 1/67/13 6/68/13
f 10/69/14 9/70/14 15/71/14 13/72/14
f 14/73/15 13/74/15 15/75/15 16/76/15
f 36/77/15 14/78/15 16/79/15 19/80/15
f 37/81/15 36/82/15 19/83/15 22/84/15
f 38/85/15 37/86/15 22/87/15 25/88/15
f 39/89/15 38/90/15 25/91/15 28/92/15
f 40/93/15 39/94/15 28/95/15 31/96/15
f 41/97/15 40/98/15 31/99/15 34/100/15
f 42/101/15 41/102/15 34/103/15 6/104/15
f 43/105/15 44/106/15 45/107/15 46/108/15
f 44/109/16 47/110/16 48/111/16 45/112/16
f 49/113/17 43/114/17 46/115/17 50/116/17
f 46/117/15 45/118/15 51/119/15 52/120/15
f 50/116/18 46/115/18 52/121/18 53/122/18
f 52/123/15 51/124/15 54/125/15 55/126/15
f 53/122/19 52/121/19 55/127/19 56/128/19
f 55/129/15 54/130/15 57/131/15 58/132/15
f 56/128/20 55/127/20 58/133/20 59/134/20
f 58/135/15 57/136/15 60/137/15 61/138/15
f 59/139/21 58/140/21 61/141/21 62/142/21
f 61/143/15 60/144/15 63/145/15 64/146/15
f 62/142/22 61/141/22 64/147/22 65/148/22
f 64/149/15 63/150/15 66/151/15 67/152/15
f 65/148/23 64/147/23 67/153/23 68/154/23
f 67/155/15 66/156/15 69/157/15 7/158/15
f 68/154/24 67/153/24 7/159/24 4/160/24
f 44/161/14 43/162/14 49/163/14 47/164/14
f 48/165/4 47/166/4 49/167/4 50/168/4
f 70/169/4 48/170/4 50/171/4 53/172/4
f 71/173/4 70/174/4 53/175/4 56/176/4
f 72/177/4 71/178/4 56/179/4 59/180/4
f 73/181/4 72/182/4 59/183/4 62/184/4
f 74/185/4 73/186/4 62/187/4 65/188/4
f 75/189/4 74/190/4 65/191/4 68/192/4
f 76/193/1 75/194/4 68/195/4 4/196/1
o bricks_selection
v 0.421875 0.414512 0.027825
v 0.578125 0.414512 0.027853
v 0.578125 0.414512 -0.032141
v 0.421875 0.414512 -0.032155
v 0.578125 0.236055 -0.031980
v 0.421875 0.236055 -0.031980
v 0.421875 0.236055 0.027650
v 0.578125 0.236055 0.027650
v 0.728224 0.343576 -0.032141
v 0.500000 0.248340 -0.032285
v 0.515417 -0.074082 -0.032285
v 0.460938 0.331425 -0.032285
v 0.484583 -0.074082 -0.032240
v 0.271776 0.343576 -0.032155
v 0.728224 0.343576 0.027853
v 0.500000 0.248340 0.027822
v 0.515417 -0.074082 0.027808
v 0.460938 0.331425 0.027823
v 0.484583 -0.074082 0.027806
v 0.271776 0.343576 0.027825
v 0.015292 -0.999365 0.027946
v 0.015292 -0.999365 -0.032365
v 0.013738 -0.844042 -0.032365
v 0.013738 -0.844042 0.027946
v -0.453458 -0.999365 -0.032365
v -0.453458 -0.999365 0.027946
v -0.453458 -0.843115 0.027946
v -0.453458 -0.843115 -0.032365
v 0.036628 -0.690641 -0.032365
v 0.036628 -0.690641 0.027946
v -0.450794 -0.771639 -0.032365
v -0.450794 -0.771639 0.027946
v -0.426351 -0.617313 -0.032365
v -0.426351 -0.617313 0.027946
v -0.409180 -0.545790 -0.032365
v -0.409180 -0.545790 0.027946
v -0.360896 -0.397187 -0.032365
v 0.084912 -0.542039 -0.032365
v -0.360896 -0.397187 0.027946
v 0.084912 -0.542039 0.027946
v -0.332748 -0.329231 -0.032365
v -0.332748 -0.329231 0.027946
v -0.261812 -0.190011 -0.032365
v 0.155848 -0.402819 -0.032365
v -0.261812 -0.190011 0.027946
v 0.155848 -0.402819 0.027946
v -0.223379 -0.127295 -0.032365
v -0.223379 -0.127295 0.027946
v -0.131537 -0.000886 -0.032365
v 0.247689 -0.276410 -0.032365
v -0.131537 -0.000886 0.027946
v 0.247689 -0.276410 0.027946
v -0.083767 0.055046 -0.032365
v -0.083767 0.055046 0.027946
v 0.026718 0.165532 -0.032365
v 0.358175 -0.165925 -0.032365
v 0.026718 0.165532 0.027946
v 0.358175 -0.165925 0.027946
v 0.082650 0.213302 -0.032365
v 0.082650 0.213302 0.027946
v 0.209059 0.305143 0.027946
v 0.209059 0.305144 -0.032365
v 0.641825 -0.165925 0.027946
v 0.917350 0.213302 0.027946
v 0.790941 0.305143 0.027946
v 0.917350 0.213302 -0.032365
v 0.641825 -0.165925 -0.032365
v 0.790941 0.305144 -0.032365
v 1.083767 0.055046 -0.032365
v 0.752311 -0.276410 -0.032365
v 0.973282 0.165532 -0.032365
v 1.083767 0.055046 0.027946
v 0.973282 0.165532 0.027946
v 0.752311 -0.276410 0.027946
v 0.844152 -0.402819 -0.032365
v 1.223379 -0.127295 -0.032365
v 1.223379 -0.127295 0.027946
v 0.844152 -0.402819 0.027946
v 1.131537 -0.000886 0.027946
v 1.131537 -0.000886 -0.032365
v 0.915088 -0.542039 -0.032365
v 1.332748 -0.329231 -0.032365
v 1.332748 -0.329231 0.027946
v 0.915088 -0.542039 0.027946
v 1.261811 -0.190011 0.027946
v 1.261811 -0.190011 -0.032365
v 0.963372 -0.690641 -0.032365
v 1.409180 -0.545790 -0.032365
v 1.409180 -0.545790 0.027946
v 0.963372 -0.690641 0.027946
v 1.360896 -0.397187 0.027946
v 1.360896 -0.397187 -0.032365
v 1.450794 -0.771639 -0.032365
v 0.986261 -0.844042 -0.032365
v 1.426351 -0.617313 -0.032365
v 1.450794 -0.771639 0.027946
v 1.426351 -0.617313 0.027946
v 0.986261 -0.844042 0.027946
v 1.453458 -0.999365 0.027946
v 1.453458 -0.999365 -0.032365
v 1.453458 -0.843115 -0.032365
v 1.453458 -0.843115 0.027946
v 0.984708 -0.999365 0.027946
v 0.984708 -0.999365 -0.032365
vt 0.000000 0.527880
vt 0.000000 0.375000
vt 0.062500 0.378369
vt 0.062484 0.531250
vt 0.718737 0.531250
vt 0.531250 0.531250
vt 0.531250 0.375000
vt 0.718750 0.375000
vt 0.718737 0.531250
vt 0.531250 0.531250
vt 0.531250 0.375000
vt 0.718750 0.375000
vt 0.531250 0.531250
vt 0.531250 0.375000
vt 0.718750 0.375000
vt 1.000000 0.531250
vt 0.625000 0.375000
vt 1.000000 0.218750
vt 1.000000 0.242188
vt 0.531250 0.218750
vt 0.531250 0.375000
vt 0.531250 0.531250
vt 0.531250 0.687500
vt 0.718750 0.687500
vt 1.000000 0.531250
vt 0.718750 0.218750
vt 0.625000 0.218750
vt 1.000000 0.375000
vt 1.000000 0.351562
vt 0.531250 0.375000
vt 0.531250 0.218750
vt 0.000000 0.062500
vt 0.468750 0.062500
vt 0.468750 0.218750
vt 0.000000 0.218750
vt 0.468750 0.687500
vt 0.000000 0.687500
vt 0.000000 0.843750
vt 0.468750 0.843750
vt 0.062500 0.062500
vt 0.062500 0.218750
vt 0.468750 0.531250
vt 0.000000 0.531250
vt 0.000000 0.687500
vt 0.468750 0.687500
vt 0.062500 0.218750
vt 0.000000 0.218750
vt 0.000000 0.375000
vt 0.062500 0.375000
vt 0.468750 0.375000
vt 0.468750 0.375000
vt 0.000000 0.375000
vt 0.000000 0.531250
vt 0.468750 0.531250
vt 0.062500 0.375000
vt 0.000000 0.375000
vt 0.000000 0.531250
vt 0.062500 0.531250
vt 0.468750 0.531250
vt 0.468750 0.218750
vt 0.000000 0.218750
vt 0.000000 0.375000
vt 0.468750 0.375000
vt 0.062500 0.531250
vt 0.000000 0.531250
vt 0.000000 0.687500
vt 0.062500 0.687500
vt 0.468750 0.687500
vt 0.468750 0.062500
vt 0.000000 0.062500
vt 0.000000 0.218750
vt 0.468750 0.218750
vt 0.062500 0.687500
vt 0.000000 0.687500
vt 0.000000 0.843750
vt 0.062500 0.843750
vt 0.468750 0.843750
vt 1.000000 0.843750
vt 0.531250 0.843750
vt 0.531250 1.000000
vt 1.000000 1.000000
vt 0.062500 0.843750
vt 0.000000 0.843750
vt 0.000000 1.000000
vt 0.062500 1.000000
vt 0.468750 1.000000
vt 0.531250 0.062500
vt 1.000000 0.062500
vt 1.000000 0.218750
vt 0.531250 0.218750
vt 1.000000 0.687500
vt 0.531250 0.687500
vt 0.531250 0.843750
vt 1.000000 0.843750
vt 0.062500 0.062500
vt 0.000000 0.062500
vt 0.000000 0.218750
vt 0.062500 0.218750
vt 1.000000 0.687500
vt 0.531250 0.687500
vt 0.531250 0.843750
vt 1.000000 0.843750
vt 0.531250 0.062500
vt 1.000000 0.062500
vt 1.000000 0.218750
vt 0.531250 0.218750
vt 0.000000 0.062500
vt 0.062500 0.062500
vt 0.062500 0.218750
vt 0.000000 0.218750
vt 0.000000 0.843750
vt 0.468750 0.843750
vt 0.468750 1.000000
vt 0.000000 1.000000
vt 0.000000 0.843750
vt 0.062500 0.843750
vt 0.062500 1.000000
vt 0.000000 1.000000
vt 1.000000 0.843750
vt 0.531250 0.843750
vt 0.531250 1.000000
vt 1.000000 1.000000
vt 0.468750 0.062500
vt 0.000000 0.062500
vt 0.000000 0.218750
vt 0.468750 0.218750
vt 0.000000 0.687500
vt 0.468750 0.687500
vt 0.000000 0.843750
vt 0.000000 0.687500
vt 0.062500 0.687500
vt 0.062500 0.843750
vt 0.000000 0.843750
vt 0.468750 0.218750
vt 0.000000 0.218750
vt 0.000000 0.375000
vt 0.468750 0.375000
vt 0.000000 0.531250
vt 0.468750 0.531250
vt 0.000000 0.687500
vt 0.000000 0.531250
vt 0.062500 0.531250
vt 0.062500 0.687500
vt 0.000000 0.687500
vt 0.468750 0.375000
vt 0.000000 0.375000
vt 0.000000 0.531250
vt 0.468750 0.531250
vt 0.000000 0.375000
vt 0.468750 0.375000
vt 0.000000 0.531250
vt 0.062500 0.375000
vt 0.062500 0.531250
vt 0.000000 0.218750
vt 0.468750 0.218750
vt 0.000000 0.375000
vt 0.000000 0.218750
vt 0.062500 0.218750
vt 0.062500 0.375000
vt 0.000000 0.375000
vt 0.468750 0.531250
vt 0.000000 0.531250
vt 0.000000 0.687500
vt 0.468750 0.687500
vt 0.000000 0.062500
vt 0.062500 0.062500
vt 0.062500 0.218750
vt 0.000000 0.218750
vt 0.468750 0.687500
vt 0.000000 0.687500
vt 0.000000 0.843750
vt 0.468750 0.843750
vt 0.000000 0.062500
vt 0.468750 0.062500
vt 0.000000 0.218750
vt 0.000000 0.218750
vt 0.062500 0.218750
vt 0.062500 0.375000
vt 0.062500 0.218750
vt 0.000000 0.218750
vt 0.000000 0.375000
vt 0.062500 0.375000
vt 0.062500 1.000000
vt 0.000000 1.000000
vt 0.000032 0.812500
vt 0.062500 0.812500
vt 0.000135 1.000000
vt 0.000000 0.812500
vt 0.062497 0.812500
vt 0.062500 1.000000
vt 0.000000 0.000000
vt 0.062500 0.000000
vt 0.062500 0.156250
vt 0.000000 0.156250
vt 0.000000 0.000000
vt 0.000000 0.468750
vt 0.062500 0.468750
vt 0.062500 0.000000
vt 0.000000 0.125000
vt 0.000000 0.593750
vt 0.062500 0.593750
vt 0.062500 0.125000
vt 0.062500 0.312500
vt 0.000000 0.312500
vt 0.000000 0.812500
vt 0.000000 0.343750
vt 0.062500 0.343750
vt 0.062500 0.812500
vt 0.000000 0.125000
vt 0.000000 0.593750
vt 0.062500 0.593750
vt 0.062500 0.125000
vt 0.000000 0.812500
vt 0.000000 0.343750
vt 0.062500 0.343750
vt 0.062500 0.812500
vt 0.000000 0.125000
vt 0.000000 0.593750
vt 0.062500 0.593750
vt 0.062500 0.125000
vt 0.000000 0.812500
vt 0.000000 0.343750
vt 0.062500 0.343750
vt 0.062500 0.812500
vt 0.000000 0.125000
vt 0.000000 0.593750
vt 0.062500 0.593750
vt 0.062500 0.125000
vt 0.000000 0.812500
vt 0.000000 0.343750
vt 0.062500 0.343750
vt 0.062500 0.812500
vt 0.000000 0.125000
vt 0.000000 0.593750
vt 0.062500 0.593750
vt 0.062500 0.125000
vt 0.000000 0.812500
vt 0.000000 0.343750
vt 0.062500 0.343750
vt 0.062500 0.812500
vt 0.000000 0.125000
vt 0.000000 0.593750
vt 0.062500 0.593750
vt 0.062500 0.125000
vt 0.000000 0.812500
vt 0.000000 0.343750
vt 0.062500 0.343750
vt 0.062500 0.812500
vt 0.000000 0.125000
vt 0.000000 0.593750
vt 0.062500 0.593750
vt 0.062500 0.125000
vt 0.000000 0.125000
vt 0.000000 0.593750
vt 0.062500 0.593750
vt 0.062500 0.125000
vt 0.000000 0.343750
vt 0.000000 0.812500
vt 0.062500 0.812500
vt 0.062500 0.343750
vt 0.000000 0.406250
vt 0.062500 0.406250
vt 0.062500 0.562500
vt 0.000000 0.562500
vt 0.000000 0.125000
vt 0.000000 0.593750
vt 0.062500 0.593750
vt 0.062500 0.125000
vt 0.000000 0.343750
vt 0.000000 0.812500
vt 0.062500 0.812500
vt 0.062500 0.343750
vt 0.000000 0.812500
vt 0.062500 0.812500
vt 0.062500 0.968750
vt 0.000000 0.968750
vt 0.000000 0.343750
vt 0.000000 0.812500
vt 0.062500 0.812500
vt 0.062500 0.343750
vt 0.000000 0.125000
vt 0.000000 0.593750
vt 0.062500 0.593750
vt 0.062500 0.125000
vt 0.000000 0.625000
vt 0.062500 0.625000
vt 0.062500 0.781250
vt 0.000000 0.781250
vt 0.000000 0.343750
vt 0.000000 0.812500
vt 0.062500 0.812500
vt 0.062500 0.343750
vt 0.000000 0.125000
vt 0.000000 0.593750
vt 0.062500 0.593750
vt 0.062500 0.125000
vt 0.000000 0.468750
vt 0.062500 0.468750
vt 0.000000 0.343750
vt 0.000000 0.812500
vt 0.062500 0.812500
vt 0.062500 0.343750
vt 0.000000 0.125000
vt 0.000000 0.593750
vt 0.062500 0.593750
vt 0.062500 0.125000
vt 0.000000 0.312500
vt 0.062500 0.312500
vt 0.000000 0.343750
vt 0.000000 0.812500
vt 0.062500 0.812500
vt 0.062500 0.343750
vt 0.000000 0.125000
vt 0.000000 0.593750
vt 0.062500 0.593750
vt 0.062500 0.125000
vt 0.000000 0.156250
vt 0.062500 0.156250
vt 0.000000 0.468750
vt 0.000000 0.000000
vt 0.062500 0.000000
vt 0.062500 0.468750
vt 0.000000 0.000000
vt 0.062500 0.000000
vt 0.000000 0.125000
vt 0.000000 0.593750
vt 0.062500 0.593750
vt 0.062500 0.125000
vt 0.062500 0.468750
vt 0.000000 0.468750
vt 0.062500 0.625000
vt 0.000000 0.625000
vt 0.062500 0.781250
vt 0.000000 0.781250
vt 0.000000 0.843750
vt 0.062500 0.843750
vt 0.062500 1.000000
vt 0.000000 1.000000
vt 0.000000 0.218750
vt 0.062500 0.218750
vt 0.062500 0.375000
vt 0.000000 0.375000
vt 0.000000 0.343750
vt 0.000000 0.812500
vt 0.062500 0.812500
vt 0.062500 0.343750
vt 0.000000 0.343750
vt 0.000000 0.812500
vt 0.062500 0.812500
vt 0.062500 0.343750
vt 0.062498 0.343750
vt 0.000000 0.343750
vt 0.000000 0.312500
vt 0.062500 0.312500
vn 0.0000 1.0000 0.0000
vn 0.0000 -0.0009 -1.0000
vn -0.0001 -0.0011 1.0000
vn -0.0004 -0.0005 1.0000
vn -0.0002 -0.0005 1.0000
vn -0.0002 -0.0004 1.0000
vn 0.0005 0.0002 1.0000
vn 0.0008 0.0001 1.0000
vn 0.0007 -0.0001 1.0000
vn -0.0001 -0.0001 1.0000
vn -0.0000 -0.0000 1.0000
vn -0.0000 0.0000 -1.0000
vn -1.0000 0.0000 0.0000
vn -0.9877 0.1564 0.0000
vn -0.9511 0.3090 0.0000
vn -0.8910 0.4540 0.0000
vn -0.8090 0.5878 0.0000
vn -0.7071 0.7071 0.0000
vn 0.0004 0.0001 1.0000
vn -0.0001 -0.0000 -1.0000
vn -0.5878 0.8090 0.0000
vn -0.0003 0.0001 -1.0000
vn 0.5878 0.8090 0.0000
vn 0.7071 0.7071 0.0000
vn 0.8090 0.5878 0.0000
vn 0.8910 0.4540 0.0000
vn 0.9511 0.3090 0.0000
vn 0.9877 0.1564 0.0000
vn 1.0000 0.0000 0.0000
vn 0.4273 0.9041 0.0000
vn -0.4273 0.9041 0.0000
vn 0.9050 -0.4255 0.0000
vn -0.9050 -0.4255 0.0000
vn 0.9999 0.0100 0.0000
vn 0.0000 -1.0000 0.0000
vn 0.0020 1.0000 0.0000
vn 0.9891 -0.1476 0.0000
vn -0.1540 -0.9881 0.0000
vn 0.1564 0.9877 0.0000
vn -0.3090 -0.9511 0.0000
vn 0.3090 0.9511 0.0000
vn -0.4540 -0.8910 0.0000
vn 0.4540 0.8910 0.0000
vn -0.5878 -0.8090 0.0000
vn -0.7071 -0.7071 0.0000
vn -0.8090 -0.5878 0.0000
vn 0.8090 -0.5878 0.0000
vn 0.7071 -0.7071 0.0000
vn 0.5878 -0.8090 0.0000
vn 0.4540 -0.8910 0.0000
vn -0.4540 0.8910 0.0000
vn -0.8910 -0.4540 0.0000
vn 0.3090 -0.9511 0.0000
vn -0.3090 0.9511 0.0000
vn -0.9511 -0.3090 0.0000
vn 0.1540 -0.9881 0.0000
vn -0.1564 0.9877 0.0000
vn -0.9891 -0.1476 0.0000
vn -0.9999 0.0100 0.0000
vn -0.0020 1.0000 0.0000
vn 0.9511 -0.3090 0.0000
vn 0.8910 -0.4540 0.0000
usemtl m_keystones
s 1
f 77/197/25 78/198/25 79/199/25 80/200/25
f 79/201/26 81/202/26 82/203/26 80/204/26
f 77/205/27 83/206/27 84/207/27 78/208/27
f 85/209/28 79/210/28 86/211/29 87/212/30
f 86/211/29 88/213/31 89/214/32 87/215/30
f 90/216/33 89/214/32 88/213/31 80/217/33
f 91/218/34 78/219/34 92/220/34 93/221/34
f 92/222/34 94/223/35 95/224/35 93/225/34
f 96/226/35 95/224/35 94/223/35 77/227/35
f 102/228/35 97/229/35 100/230/35 103/231/35
f 98/232/36 101/233/36 104/234/36 99/235/36
f 101/236/37 102/228/37 103/231/37 104/237/37
f 99/238/36 107/239/36 109/240/36 105/241/36
f 107/242/38 108/243/38 110/244/38 109/245/38
f 108/243/35 100/230/35 106/246/35 110/244/35
f 105/247/36 111/248/36 113/249/36 114/250/36
f 111/251/39 112/252/39 115/253/39 113/254/39
f 112/252/35 106/246/35 116/255/35 115/253/35
f 114/256/36 117/257/36 119/258/36 120/259/36
f 117/260/40 118/261/40 121/262/40 119/263/40
f 118/261/35 116/255/35 122/264/35 121/262/35
f 120/265/36 123/266/36 125/267/36 126/268/36
f 123/269/41 124/270/41 127/271/41 125/272/41
f 124/270/35 122/264/35 128/273/35 127/271/35
f 126/274/36 129/275/36 131/276/36 132/277/36
f 129/278/42 130/279/42 133/280/42 131/281/42
f 130/279/35 128/273/35 134/282/35 133/280/35
f 136/283/43 134/284/43 95/285/43 137/286/43
f 132/287/44 135/288/44 138/289/44 89/290/44
f 135/291/45 136/292/45 137/293/45 138/294/45
f 139/295/35 140/296/35 141/297/35 93/298/35
f 142/299/46 143/300/46 87/301/46 144/302/46
f 140/303/47 142/304/47 144/305/47 141/306/47
f 145/307/36 146/308/36 143/309/36 147/310/36
f 148/311/48 145/312/48 147/313/48 149/314/48
f 150/315/35 148/316/35 149/317/35 139/318/35
f 154/319/35 153/320/35 155/321/35 150/322/35
f 152/323/36 151/324/36 146/308/36 156/325/36
f 153/326/49 152/327/49 156/328/49 155/329/49
f 160/330/35 159/331/35 161/332/35 154/333/35
f 158/334/36 157/335/36 151/324/36 162/336/36
f 159/337/50 158/338/50 162/339/50 161/340/50
f 166/341/35 165/342/35 167/343/35 160/344/35
f 164/345/36 163/346/36 157/335/36 168/347/36
f 165/342/51 164/348/51 168/349/51 167/343/51
f 169/350/36 170/351/36 163/346/36 171/352/36
f 172/353/52 169/354/52 171/355/52 173/356/52
f 174/357/35 172/358/35 173/359/35 166/360/35
f 175/361/53 176/362/53 177/363/53 178/364/53
f 179/365/35 175/366/35 178/367/35 174/368/35
f 176/369/36 180/370/36 170/351/36 177/371/36
f 91/372/54 85/373/54 79/374/54 78/198/54
f 90/375/55 96/376/55 77/377/55 80/378/55
usemtl m_arch
f 79/379/56 78/380/56 92/381/56 86/382/56
f 80/383/57 86/384/57 92/385/57 77/386/57
f 97/387/58 98/388/58 99/389/58 100/390/58
f 101/391/59 98/392/59 97/393/59 102/394/59
f 103/395/60 100/396/60 99/397/60 104/398/60
f 100/390/61 99/389/61 105/399/61 106/400/61
f 107/401/62 99/402/62 100/403/62 108/404/62
f 110/405/63 106/406/63 105/407/63 109/408/63
f 111/409/64 105/410/64 106/411/64 112/412/64
f 115/413/65 116/414/65 114/415/65 113/416/65
f 117/417/66 114/418/66 116/419/66 118/420/66
f 121/421/67 122/422/67 120/423/67 119/424/67
f 123/425/68 120/426/68 122/427/68 124/428/68
f 127/429/47 128/430/47 126/431/47 125/432/47
f 129/433/69 126/434/69 128/435/69 130/436/69
f 133/437/48 134/438/48 132/439/48 131/440/48
f 135/441/70 132/442/70 134/443/70 136/444/70
f 137/445/49 95/446/49 89/447/49 138/448/49
f 93/449/41 141/450/41 144/451/41 87/452/41
f 143/453/71 142/454/71 140/455/71 139/456/71
f 143/457/68 139/458/68 93/459/68 87/460/68
f 139/461/42 149/462/42 147/463/42 143/464/42
f 146/465/72 145/466/72 148/467/72 150/468/72
f 146/469/69 150/470/69 139/471/69 143/472/69
f 151/473/73 152/474/73 153/475/73 154/476/73
f 150/477/45 155/478/45 156/479/45 146/480/45
f 151/481/70 154/482/70 150/483/70 146/484/70
f 157/485/74 158/486/74 159/487/74 160/488/74
f 154/489/75 161/490/75 162/491/75 151/492/75
f 157/493/76 160/494/76 154/482/76 151/481/76
f 163/495/77 164/496/77 165/497/77 166/498/77
f 160/499/78 167/500/78 168/501/78 157/502/78
f 163/503/79 166/504/79 160/494/79 157/493/79
f 170/505/80 169/506/80 172/507/80 174/508/80
f 166/509/81 173/510/81 171/511/81 163/512/81
f 170/513/82 174/514/82 166/504/82 163/503/82
f 180/515/59 176/516/59 175/517/59 179/518/59
f 180/519/83 179/520/83 174/514/83 170/513/83
f 174/521/84 178/522/84 177/523/84 170/524/84
f 106/400/85 105/399/85 114/525/85 116/526/85
f 116/526/86 114/525/86 120/527/86 122/528/86
f 122/528/71 120/527/71 126/529/71 128/530/71
f 128/531/72 126/532/72 132/533/72 134/534/72
f 134/535/73 132/536/73 89/537/73 95/538/73
f 87/539/86 85/540/86 91/541/86 93/542/86
f 95/543/76 96/544/76 90/545/76 89/546/76
f 95/547/59 89/548/59 87/549/59 93/550/59
