# Blender v3.2.2 OBJ File: ''
# www.blender.org
mtllib brick_arch.mtl
o mortar_middle
v 0.794053 1.399055 -0.010000
v 0.662937 0.873173 -0.010000
v 0.395865 0.923572 -0.010000
v 0.500000 1.456256 -0.009969
v 0.662937 0.873173 0.009938
v 0.794053 1.399055 0.009938
v 0.500000 1.456256 0.009969
v 0.395865 0.923572 0.009938
v 1.015713 1.331287 -0.010000
v 0.830344 0.821992 -0.010000
v 0.830344 0.821992 0.009938
v 1.015713 1.331287 0.009938
v 0.205947 1.399055 0.010000
v 0.337063 0.873173 0.010000
v 0.604135 0.923572 0.010000
v 0.337063 0.873173 -0.009938
v 0.205947 1.399055 -0.009938
v 0.604135 0.923572 -0.009938
v -0.015713 1.331287 0.010000
v 0.169656 0.821992 0.010000
v 0.169656 0.821992 -0.009938
v -0.015713 1.331287 -0.009938
vt 1.000000 0.296875
vt 0.500000 0.281250
vt 0.500000 0.000000
vt 0.999742 0.000000
vt 1.000000 0.296875
vt 0.500000 0.281250
vt 0.500000 0.000000
vt 0.999742 0.000000
vt 0.000000 0.437500
vt 0.031250 0.437500
vt 0.031250 0.718750
vt 0.000000 0.718750
vt 0.000000 0.562500
vt 0.500000 0.593750
vt 0.500000 0.750000
vt 0.000003 0.781250
vt 0.500000 0.593750
vt 1.000000 0.562500
vt 1.000000 0.781250
vt 0.500000 0.750000
vt 0.000000 0.218750
vt 0.031250 0.218750
vt 0.000000 0.296875
vt 0.500000 0.281250
vt 0.500000 0.000000
vt 0.000258 0.000000
vt 1.000000 0.296875
vt 0.500000 0.281250
vt 0.500000 0.000000
vt 0.999742 0.000000
vt 0.000000 0.437500
vt 0.031250 0.437500
vt 0.031250 0.718750
vt 0.000000 0.718750
vt 0.000000 0.562500
vt 0.500000 0.593750
vt 0.500000 0.750000
vt 0.000003 0.781250
vt 0.500000 0.593750
vt 1.000000 0.562500
vt 1.000000 0.781250
vt 0.500000 0.750000
vt 0.000000 0.218750
vt 0.031250 0.218750
vn -0.0000 0.0000 -1.0000
vn 0.0000 -0.0000 1.0000
vn 0.1909 0.9816 0.0000
vn 0.2924 0.9563 0.0000
vn -0.1909 0.9816 0.0000
vn -0.2924 0.9563 0.0000
usemtl m_mortar
s 1
f 1/1/1 2/2/1 3/3/1 4/4/1
f 5/5/2 6/6/2 7/7/2 8/8/2
f 6/9/3 1/10/3 4/11/3 7/12/3
f 9/13/1 10/14/1 2/15/1 1/16/1
f 11/17/2 12/18/2 6/19/2 5/20/2
f 12/21/4 9/22/4 1/10/4 6/9/4
f 13/23/2 14/24/2 15/25/2 7/26/2
f 16/27/1 17/28/1 4/29/1 18/30/1
f 17/31/5 13/32/5 7/33/5 4/34/5
f 19/35/2 20/36/2 14/37/2 13/38/2
f 21/39/1 22/40/1 17/41/1 16/42/1
f 22/43/6 19/44/6 13/32/6 17/31/6
o middle
v 0.706041 0.841009 0.035254
v 0.885485 1.334027 0.035254
v 0.885485 1.334027 -0.039746
v 0.706041 0.841009 -0.039746
v 0.862045 0.784229 -0.039746
v 1.041489 1.277246 -0.039746
v 1.041489 1.277246 0.035254
v 0.862045 0.784229 0.035254
v 0.841833 1.347790 -0.039746
v 0.545683 0.883977 -0.039706
v 0.681474 1.390758 -0.039746
v 0.841833 1.347790 0.035254
v 0.681474 1.390758 0.035254
v 0.545683 0.883977 0.035107
v 0.636788 1.400665 0.034961
v 0.502284 1.424809 0.034986
v 0.411041 0.907718 0.034961
v 0.636788 1.400665 -0.039665
v 0.502284 1.424809 -0.039632
v 0.411041 0.907718 -0.039665
v 0.454317 0.883977 0.035132
v 0.454317 0.883977 -0.039673
v 0.593527 0.908524 -0.039600
v 0.593527 0.908524 0.035010
v 0.363212 1.400665 -0.039600
v 0.363212 1.400665 0.035010
v 0.293959 0.841009 0.035254
v 0.293959 0.841009 -0.039746
v 0.158167 1.347790 0.035254
v 0.318526 1.390758 0.035254
v 0.158167 1.347790 -0.039746
v 0.318526 1.390758 -0.039746
v 0.137955 0.784229 0.035254
v 0.137955 0.784229 -0.039746
v -0.041489 1.277246 -0.039746
v -0.041489 1.277246 0.035254
v 0.114515 1.334027 -0.039746
v 0.114515 1.334027 0.035254
vt 0.000000 1.000000
vt 0.000000 0.500000
vt 0.062500 0.500000
vt 0.062500 1.000000
vt 0.000000 0.500000
vt 0.000000 1.000000
vt 0.062500 1.000000
vt 0.062500 0.500000
vt 0.000000 0.218750
vt 0.062500 0.218750
vt 0.062500 0.375000
vt 0.000000 0.375000
vt 0.000000 0.500000
vt 0.000000 1.000000
vt 0.062500 1.000000
vt 0.062500 0.500000
vt 0.000000 1.000000
vt 0.000000 0.500000
vt 0.062500 0.500000
vt 0.062500 1.000000
vt 0.062500 0.531250
vt 0.000000 0.531250
vt 0.000000 0.500000
vt 0.000000 1.000000
vt 0.062500 1.000000
vt 0.062500 0.500000
vt 0.062500 0.687500
vt 0.000000 0.687500
vt 0.062500 0.750000
vt 0.000000 0.750000
vt 0.000000 0.906250
vt 0.062500 0.906250
vt 0.000000 1.000000
vt 0.000000 0.500000
vt 0.062500 0.500000
vt 0.062500 1.000000
vt 0.062500 0.593750
vt 0.000000 0.593750
vt 0.000000 1.000000
vt 0.000000 0.500000
vt 0.062500 0.500000
vt 0.062500 1.000000
vt 0.000000 1.000000
vt 0.000000 0.500000
vt 0.062500 0.500000
vt 0.062500 1.000000
vt 0.062500 0.812500
vt 0.000000 0.812500
vt 0.000000 0.968750
vt 0.062500 0.968750
vt 0.000000 1.000000
vt 0.000000 0.500000
vt 0.062500 0.500000
vt 0.062500 1.000000
vt 0.000000 1.000000
vt 0.000000 0.500000
vt 0.062500 0.500000
vt 0.062500 1.000000
vt 0.000000 0.843750
vt 0.062500 0.843750
vt 0.062500 0.687500
vt 0.000000 0.687500
vt 0.468750 0.687500
vt 0.000000 0.687500
vt 0.000000 0.843750
vt 0.468750 0.843750
vt 0.000000 0.531250
vt 0.468750 0.531250
vt 0.468750 0.375000
vt 0.000000 0.375000
vt 0.000000 0.687500
vt 0.468750 0.687500
vt 0.468750 0.531250
vt 0.000000 0.531250
vt 0.000000 0.687500
vt 0.062500 0.687500
vt 0.062500 0.531250
vt 0.000000 0.531250
vt 0.468750 0.531250
vt 0.000000 0.531250
vt 0.000000 0.687500
vt 0.468750 0.687500
vt 0.468750 0.375000
vt 0.000000 0.375000
vt 0.000000 0.500000
vt 0.468750 0.500000
vt 0.000000 0.500000
vt 0.062500 0.500000
vt 0.062500 0.375000
vt 0.000000 0.375000
vt 0.468750 0.375000
vt 0.000000 0.375000
vt 0.000000 0.500000
vt 0.468750 0.500000
vt 0.000000 0.343750
vt 0.468750 0.343750
vt 0.468750 0.218750
vt 0.000000 0.218750
vt 0.000000 0.843750
vt 0.062500 0.843750
vt 0.062500 0.968750
vt 0.000000 0.968750
vt 0.000000 0.687500
vt 0.468750 0.687500
vt 0.468750 0.531250
vt 0.000000 0.531250
vt 0.468750 0.531250
vt 0.000000 0.531250
vt 0.000000 0.687500
vt 0.468750 0.687500
vt 0.000000 0.218750
vt 0.062500 0.218750
vt 0.062500 0.375000
vt 0.000000 0.375000
vt 0.468750 0.687500
vt 0.000000 0.687500
vt 0.000000 0.843750
vt 0.468750 0.843750
vt 0.000000 0.375000
vt 0.062500 0.375000
vt 0.062500 0.531250
vt 0.000000 0.531250
vt 0.000000 0.531250
vt 0.468750 0.531250
vt 0.468750 0.375000
vt 0.000000 0.375000
vt 0.000000 0.343750
vt 0.468750 0.343750
vt 0.468750 0.218750
vt 0.000000 0.218750
vn -0.9397 0.3420 0.0000
vn 0.9397 -0.3420 0.0000
vn -0.3420 -0.9397 0.0000
vn 0.9659 -0.2588 0.0000
vn -0.9659 0.2588 0.0000
vn -0.2588 -0.9659 0.0000
vn 0.9848 -0.1736 0.0000
vn -0.1736 -0.9848 0.0000
vn 0.1737 -0.9848 0.0000
vn -0.9848 -0.1736 0.0000
vn 0.2588 -0.9659 0.0000
vn -0.9659 -0.2588 0.0000
vn 0.9659 0.2588 0.0000
vn 0.3420 -0.9397 0.0000
vn -0.9397 -0.3420 0.0000
vn 0.9397 0.3420 0.0000
vn 0.3420 0.9397 0.0000
vn 0.0000 -0.0000 1.0000
vn -0.0000 0.0000 -1.0000
vn -0.0001 -0.0000 -1.0000
vn 0.2588 0.9659 0.0000
vn -0.0001 -0.0000 1.0000
vn 0.0003 0.0002 1.0000
vn 0.0002 0.0002 1.0000
vn 0.1767 0.9843 0.0000
vn 0.0001 0.0001 -1.0000
vn 0.0005 0.0002 1.0000
vn -0.1710 0.9853 0.0000
vn 0.0004 -0.0000 1.0000
vn 0.0002 -0.0000 -1.0000
vn -0.2588 0.9659 0.0000
vn -0.3420 0.9397 0.0000
vn -0.0003 0.0001 -1.0000
usemtl m_arch
s 1
f 23/45/7 24/46/7 25/47/7 26/48/7
f 27/49/8 28/50/8 29/51/8 30/52/8
f 27/53/9 30/54/9 23/55/9 26/56/9
f 26/57/10 31/58/10 34/59/10 23/60/10
f 36/61/11 35/62/11 33/63/11 32/64/11
f 26/56/12 23/55/12 36/65/12 32/66/12
f 32/67/13 40/68/13 37/69/13 36/70/13
f 32/66/14 36/65/14 39/71/14 42/72/14
f 43/73/15 44/74/15 45/75/15 46/76/15
f 47/77/16 44/78/16 43/79/16 48/80/16
f 49/81/17 50/82/17 44/74/17 43/73/17
f 53/83/18 50/84/18 49/85/18 51/86/18
f 52/87/19 43/88/19 44/89/19 54/90/19
f 55/91/20 56/92/20 50/93/20 49/94/20
f 57/95/21 56/96/21 55/97/21 58/98/21
f 60/99/22 49/100/22 50/101/22 59/102/22
usemtl m_keystones
f 29/103/23 28/104/23 25/105/23 24/106/23
f 30/107/24 29/108/24 24/109/24 23/110/24
f 28/111/25 27/112/25 26/113/25 25/114/25
f 31/115/26 26/116/26 32/117/26 33/118/26
f 34/119/27 31/120/27 33/121/27 35/122/27
f 23/123/28 34/124/28 35/125/28 36/126/28
f 36/127/29 37/128/30 38/129/29 39/130/30
f 37/131/31 40/132/31 41/133/31 38/134/31
f 44/135/32 47/136/32 41/137/32 45/138/32
f 48/139/33 43/140/33 46/141/33 38/142/33
f 47/143/34 48/144/34 38/145/34 41/146/34
f 51/147/35 49/148/35 43/149/35 52/150/35
f 50/151/36 53/152/36 54/153/36 44/154/36
f 53/155/37 51/156/37 52/157/37 54/158/37
f 56/159/25 57/160/25 59/161/25 50/162/25
f 57/163/38 58/164/38 60/165/38 59/166/38
f 58/167/24 55/168/24 49/169/24 60/170/24
f 40/171/39 32/172/39 42/173/39 41/174/39
