# Blender v3.2.2 OBJ File: ''
# www.blender.org
mtllib brick_arch.mtl
o cube.024.000
v 0.711828 1.495703 0.005469
v 0.934796 1.010992 0.005469
v 0.927364 1.578768 0.005469
v 0.934796 1.010992 -0.008281
v 0.711828 1.495703 -0.008281
v 0.927364 1.578768 -0.008281
v 0.503499 1.394095 -0.008281
v 0.503499 1.394095 0.005469
v 0.766257 0.920067 -0.008281
v 0.766257 0.920067 0.005469
v 1.000000 1.010994 0.005469
v 1.000000 1.578768 0.005469
v 1.000000 1.578768 -0.008281
v 1.000000 1.010994 -0.008281
v 0.617800 0.827301 -0.008281
v 0.306933 1.271266 -0.008281
v 0.306933 1.271266 0.005469
v 0.617800 0.827302 0.005469
v 0.124282 1.128564 0.005469
v 0.476418 0.716265 0.005469
v 0.476418 0.716265 -0.008281
v 0.124282 1.128564 -0.008281
v -0.045236 0.970485 -0.008281
v -0.045236 0.970485 0.005469
v 0.347708 0.597596 -0.008281
v 0.347708 0.597596 0.005469
v -0.194226 0.792926 -0.008281
v -0.194226 0.792926 0.005469
v 0.243777 0.474698 -0.008281
v 0.243777 0.474698 0.005469
v -0.317055 0.596360 0.005469
v 0.156972 0.333602 0.005469
v -0.317055 0.596359 -0.008281
v 0.156972 0.333602 -0.008281
v 0.083316 0.185217 -0.008281
v -0.418664 0.388030 -0.008281
v -0.418664 0.388031 0.005469
v 0.083316 0.185218 0.005469
v -0.490290 0.167588 0.005469
v 0.033223 0.027313 0.005469
v 0.033223 0.027313 -0.008281
v -0.490290 0.167588 -0.008281
v -0.538481 -0.059134 -0.008281
v -0.538481 -0.059134 0.005469
v -0.002719 -0.139205 0.005469
v -0.002719 -0.139205 -0.008281
v -0.558682 -0.290039 -0.008281
v -0.558682 -0.290039 0.005469
v -0.016990 -0.313690 0.005469
v -0.016990 -0.313690 -0.008281
v -0.558682 -0.498877 0.005469
v -0.015958 -0.498877 0.005469
v -0.558682 -0.498877 -0.008281
v -0.015958 -0.498877 -0.008281
vt 0.062500 0.406250
vt 0.500000 0.218750
vt 0.000000 0.218750
vt 0.500000 0.375000
vt 0.062500 0.187500
vt 0.000000 0.375000
vt 0.000000 0.781250
vt 0.031250 0.781250
vt 0.031250 1.000000
vt 0.000000 1.000000
vt 0.000000 0.562500
vt 0.031250 0.562500
vt 0.500000 0.562500
vt 0.000000 0.593750
vt 0.000000 0.375000
vt 0.500000 0.406250
vt 0.000000 0.000000
vt 0.500000 0.031250
vt 0.500000 0.187500
vt 0.000000 0.218750
vt 0.000000 0.000000
vt 0.500000 0.000000
vt 0.500000 0.062500
vt 0.000000 0.062500
vt 0.000000 0.937500
vt 0.031250 0.937500
vt 0.031250 1.000000
vt 0.000000 1.000000
vt 0.000000 0.125000
vt 0.500000 0.125000
vt 0.500000 0.062500
vt 0.000000 0.062500
vt 0.500000 0.750000
vt 0.000000 0.781250
vt 0.500000 0.593750
vt 1.000000 0.750000
vt 0.500000 0.781250
vt 0.500000 0.937500
vt 1.000000 0.968750
vt 0.000000 0.343750
vt 0.031250 0.343750
vt 1.000000 0.562500
vt 0.500000 0.593750
vt 0.500000 0.750000
vt 1.000000 0.781250
vt 0.500000 0.937500
vt 0.000000 0.968750
vt 0.000000 0.750000
vt 0.500000 0.781250
vt 0.000000 0.125000
vt 0.031250 0.125000
vt 0.000000 0.656250
vt 0.031250 0.656250
vt 0.031250 0.875000
vt 0.000000 0.875000
vt 0.500000 0.187500
vt 1.000000 0.218750
vt 1.000000 0.000000
vt 0.500000 0.031250
vt 1.000000 0.375000
vt 0.500000 0.406250
vt 0.500000 0.562500
vt 1.000000 0.593750
vt 0.000000 0.437500
vt 0.031250 0.437500
vt 0.500000 0.375000
vt 1.000000 0.406250
vt 1.000000 0.187500
vt 0.500000 0.218750
vt 1.000000 0.187500
vt 0.500000 0.218750
vt 0.500000 0.375000
vt 1.000000 0.406250
vt 1.000000 0.000000
vt 0.500000 0.031250
vt 0.500000 0.187500
vt 1.000000 0.218750
vt 0.000000 0.218750
vt 0.031250 0.218750
vt 0.500000 0.562500
vt 1.000000 0.593750
vt 1.000000 0.375000
vt 0.500000 0.406250
vt 0.500000 0.750000
vt 1.000000 0.781250
vt 1.000000 0.562500
vt 0.500000 0.593750
vt 0.000000 0.750000
vt 0.500000 0.781250
vt 0.500000 0.937500
vt 0.000000 0.968750
vt 0.000000 0.000000
vt 0.031250 0.000000
vt 0.000000 0.562500
vt 0.500000 0.593750
vt 0.500000 0.750000
vt 0.000000 0.781250
vt 0.500000 0.937500
vt 1.000000 0.968750
vt 1.000000 0.750000
vt 0.500000 0.781250
vt 0.000000 0.781250
vt 0.031250 0.781250
vt 0.031250 1.000000
vt 0.000000 1.000000
vt 0.000000 0.562500
vt 0.031250 0.562500
vt 0.000000 0.375000
vt 0.500000 0.406250
vt 0.500000 0.562500
vt 0.000000 0.593750
vt 0.500000 0.406250
vt 0.000000 0.375000
vt 0.000000 0.593750
vt 0.500000 0.562500
vt 0.000000 0.343750
vt 0.031250 0.343750
vt 0.000000 0.187500
vt 0.500000 0.218750
vt 0.500000 0.375000
vt 0.000000 0.406250
vt 0.500000 0.375000
vt 0.000000 0.406250
vt 0.000000 0.187500
vt 0.500000 0.218750
vt 0.000000 0.000000
vt 0.500000 0.000000
vt 0.500000 0.187500
vt 0.000000 0.218750
vt 0.000000 0.125000
vt 0.031250 0.125000
vt 0.500000 0.000000
vt 0.000000 0.000000
vt 0.000000 0.218750
vt 0.500000 0.187500
vt 0.000000 0.500000
vt 0.031250 0.000000
vt 0.031250 0.500000
vt 0.000000 0.000000
vt 0.031250 0.000000
vt 0.031250 0.187500
vt 0.000000 0.187500
vn 0.0000 -0.0000 1.0000
vn 0.0000 0.0000 -1.0000
vn -0.3596 0.9331 0.0000
vn -0.4384 0.8988 0.0000
vn 0.0000 1.0000 0.0000
vn -0.5299 0.8480 0.0000
vn -0.6157 0.7880 0.0000
vn -0.6820 0.7314 0.0000
vn -0.7660 0.6428 0.0000
vn -0.8480 0.5299 -0.0000
vn -0.8988 0.4384 -0.0000
vn -0.9511 0.3090 -0.0000
vn -0.9781 0.2079 0.0000
vn -0.9962 0.0872 0.0000
vn -1.0000 0.0000 0.0000
vn 0.0000 -1.0000 0.0000
vn 1.0000 0.0056 0.0000
usemtl m_mortar
s 1
f 1/1/1 2/2/1 3/3/1
f 4/4/2 5/5/2 6/6/2
f 5/7/3 1/8/3 3/9/3 6/10/3
f 7/11/4 8/12/4 1/8/4 5/7/4
f 9/13/2 7/14/2 5/15/2 4/16/2
f 8/17/1 10/18/1 2/19/1 1/20/1
f 3/21/1 2/22/1 11/23/1 12/24/1
f 6/25/5 3/26/5 12/27/5 13/28/5
f 4/29/2 6/30/2 13/31/2 14/32/2
f 15/33/2 16/34/2 7/11/2 9/35/2
f 17/36/1 18/37/1 10/38/1 8/39/1
f 16/40/6 17/41/6 8/12/6 7/11/6
f 19/42/1 20/43/1 18/44/1 17/45/1
f 21/46/2 22/47/2 16/48/2 15/49/2
f 22/50/7 19/51/7 17/41/7 16/40/7
f 23/52/8 24/53/8 19/54/8 22/55/8
f 25/56/2 23/57/2 22/58/2 21/59/2
f 24/60/1 26/61/1 20/62/1 19/63/1
f 27/64/9 28/65/9 24/53/9 23/52/9
f 29/66/2 27/67/2 23/68/2 25/69/2
f 28/70/1 30/71/1 26/72/1 24/73/1
f 31/74/1 32/75/1 30/76/1 28/77/1
f 33/78/10 31/79/10 28/65/10 27/64/10
f 34/80/2 33/81/2 27/82/2 29/83/2
f 35/84/2 36/85/2 33/86/2 34/87/2
f 37/88/1 38/89/1 32/90/1 31/91/1
f 36/92/11 37/93/11 31/79/11 33/78/11
f 39/94/1 40/95/1 38/96/1 37/97/1
f 41/98/2 42/99/2 36/100/2 35/101/2
f 42/102/12 39/103/12 37/104/12 36/105/12
f 43/106/13 44/107/13 39/103/13 42/102/13
f 44/108/1 45/109/1 40/110/1 39/111/1
f 46/112/2 43/113/2 42/114/2 41/115/2
f 47/116/14 48/117/14 44/107/14 43/106/14
f 48/118/1 49/119/1 45/120/1 44/121/1
f 50/122/2 47/123/2 43/124/2 46/125/2
f 51/126/1 52/127/1 49/128/1 48/129/1
f 53/130/15 51/131/15 48/117/15 47/116/15
f 54/132/2 53/133/2 47/134/2 50/135/2
f 52/136/16 51/126/16 53/137/16 54/138/16
f 52/139/17 54/140/17 50/141/17 49/142/17
o cube.006
v 0.169356 0.276966 -0.033853
v -0.293131 0.543983 -0.033853
v -0.215006 0.679299 -0.033853
v 0.247481 0.412405 -0.033853
v -0.215006 0.679299 0.034822
v 0.247481 0.412405 0.034822
v -0.293131 0.543983 0.034822
v 0.169356 0.276966 0.034822
v -0.382061 0.351436 0.034822
v 0.105803 0.134225 0.034822
v -0.318508 0.494177 0.034822
v -0.318508 0.494177 -0.033853
v 0.105803 0.134225 -0.033854
v -0.382061 0.351435 -0.033853
v 0.057519 -0.014378 0.034822
v -0.447405 0.149682 0.034822
v -0.447405 0.149682 -0.033853
v 0.057519 -0.014378 -0.033854
v -0.399121 0.298284 0.034822
v -0.399121 0.298284 -0.033853
v 0.025033 -0.167214 -0.033854
v -0.494274 -0.056832 -0.033854
v -0.461787 0.096004 -0.033854
v -0.461787 0.096004 0.034822
v -0.494274 -0.056831 0.034822
v 0.025033 -0.167213 0.034822
v -0.516192 -0.267439 0.034822
v 0.008700 -0.322607 0.034822
v -0.499859 -0.112045 0.034822
v -0.499859 -0.112045 -0.033854
v 0.008700 -0.322608 -0.033854
v -0.516192 -0.267439 -0.033854
v 0.008700 -0.478858 -0.033854
v -0.515958 -0.478858 -0.033854
v -0.515958 -0.322608 -0.033854
v 0.008700 -0.478857 0.034822
v -0.515958 -0.478857 0.034822
v -0.515958 -0.322607 0.034822
v 0.339322 0.538936 -0.033853
v -0.092720 0.852832 -0.033853
v -0.092720 0.852833 0.034822
v 0.339322 0.538936 0.034822
v -0.184561 0.726424 -0.033853
v -0.184561 0.726424 0.034822
v 0.443874 0.655052 -0.033891
v 0.049332 1.010299 -0.033853
v 0.049332 1.010299 0.034822
v 0.443874 0.655052 0.034822
v -0.055220 0.894183 -0.033853
v -0.055220 0.894183 0.034822
v 0.090718 1.047271 -0.033928
v 0.206834 1.151823 -0.033928
v 0.559990 0.759604 -0.033920
v 0.090718 1.047271 0.034822
v 0.206834 1.151823 0.034822
v 0.559990 0.759604 0.034822
v 0.251604 1.184061 0.034822
v 0.686399 0.851445 0.034822
v 0.378013 1.275903 0.034822
v 0.251604 1.184061 -0.033913
v 0.378013 1.275903 -0.033913
v 0.686399 0.851445 -0.033913
v 0.424070 1.305813 0.034822
v 0.821716 0.929570 0.034822
v 0.559386 1.383938 0.034822
v 0.424070 1.305812 -0.033913
v 0.559386 1.383937 -0.033913
v 0.821716 0.929570 -0.033913
v 0.608318 1.408869 0.034822
v 0.999934 0.996546 0.034628
v 0.778216 1.488690 0.034822
v 0.608318 1.408869 -0.033913
v 0.778216 1.488690 -0.033913
v 0.999934 0.996546 -0.033764
v 0.816493 1.502833 0.034277
v 0.816493 1.502832 -0.033773
v 0.926276 1.547302 -0.033261
v 1.002297 1.550424 -0.033615
v 1.002297 1.550424 0.034435
v 0.926276 1.547302 0.034789
vt 1.000000 0.375000
vt 0.531250 0.375000
vt 0.531250 0.531250
vt 1.000000 0.531250
vt 0.000000 0.843750
vt 0.062500 0.843750
vt 0.062500 1.000000
vt 0.000000 1.000000
vt 0.000000 0.843750
vt 0.468750 0.843750
vt 0.468750 1.000000
vt 0.000000 1.000000
vt 0.000000 0.687500
vt 0.468750 0.687500
vt 0.000000 0.843750
vt 1.000000 0.531250
vt 0.531250 0.531250
vt 0.531250 0.687500
vt 1.000000 0.687500
vt 0.000000 0.687500
vt 0.062500 0.687500
vt 0.062500 0.843750
vt 0.000000 0.843750
vt 0.000000 0.531250
vt 0.468750 0.531250
vt 0.000000 0.687500
vt 0.000000 0.531250
vt 0.062500 0.531250
vt 0.062500 0.687500
vt 0.000000 0.687500
vt 1.000000 0.687500
vt 0.531250 0.687500
vt 0.531250 0.843750
vt 1.000000 0.843750
vt 1.000000 0.843750
vt 0.531250 0.843750
vt 0.531250 1.000000
vt 1.000000 1.000000
vt 0.000000 0.375000
vt 0.062500 0.375000
vt 0.062500 0.531250
vt 0.000000 0.531250
vt 0.000000 0.375000
vt 0.468750 0.375000
vt 0.000000 0.531250
vt 0.000000 0.218750
vt 0.468750 0.218750
vt 0.000000 0.375000
vt 0.468750 0.062500
vt 0.000000 0.062500
vt 0.000000 0.218750
vt 0.468750 0.218750
vt 0.000000 0.218750
vt 0.062500 0.218750
vt 0.062500 0.375000
vt 0.000000 0.375000
vt 0.468750 0.218750
vt 0.000000 0.218750
vt 0.000000 0.375000
vt 0.468750 0.375000
vt 0.000000 0.062500
vt 0.062500 0.062500
vt 0.062500 0.218750
vt 0.000000 0.218750
vt 0.000000 0.062500
vt 0.468750 0.062500
vt 0.000000 0.218750
vt 1.000000 0.218750
vt 0.531250 0.218750
vt 0.531250 0.375000
vt 1.000000 0.375000
vt 0.000000 0.062500
vt 0.062500 0.062500
vt 0.062500 0.218750
vt 0.000000 0.218750
vt 0.531250 0.062500
vt 1.000000 0.062500
vt 1.000000 0.218750
vt 0.531250 0.218750
vt 0.000000 0.218750
vt 0.062500 0.218750
vt 0.062500 0.375000
vt 0.000000 0.375000
vt 1.000000 0.062500
vt 0.531250 0.062500
vt 0.531250 0.218750
vt 1.000000 0.218750
vt 0.531250 0.218750
vt 1.000000 0.375000
vt 0.531250 0.375000
vt 0.468750 0.843750
vt 0.000000 0.843750
vt 0.000000 1.000000
vt 0.468750 1.000000
vt 0.000000 0.375000
vt 0.062500 0.375000
vt 0.062500 0.531250
vt 0.000000 0.531250
vt 0.531250 0.375000
vt 1.000000 0.531250
vt 0.531250 0.531250
vt 0.531250 0.531250
vt 1.000000 0.687500
vt 0.531250 0.687500
vt 0.468750 0.687500
vt 0.000000 0.687500
vt 0.000000 0.843750
vt 0.468750 0.843750
vt 0.000000 0.531250
vt 0.062500 0.531250
vt 0.062500 0.687500
vt 0.000000 0.687500
vt 0.531250 0.687500
vt 1.000000 0.843750
vt 0.531250 0.843750
vt 0.468750 0.531250
vt 0.000000 0.531250
vt 0.000000 0.687500
vt 0.468750 0.687500
vt 0.000000 0.687500
vt 0.062500 0.687500
vt 0.062500 0.843750
vt 0.000000 0.843750
vt 0.531250 1.000000
vt 1.000000 1.000000
vt 1.000000 0.843750
vt 0.531250 0.843750
vt 0.468750 0.375000
vt 0.000000 0.375000
vt 0.000000 0.531250
vt 0.468750 0.531250
vt 0.000000 1.000000
vt 0.062500 1.000000
vt 0.062500 0.843750
vt 0.000000 0.843750
vt 0.000000 0.304688
vt 0.000000 0.375000
vt 0.468750 0.375000
vt 0.031250 0.218750
vt 0.468750 0.062500
vt 0.000000 0.062500
vt 0.000000 0.125000
vt 0.031250 0.218750
vt 0.000000 0.175000
vt 0.062500 0.175000
vt 0.062500 0.062500
vt 0.000000 0.062500
vt 0.000000 0.250000
vt 0.062500 0.250000
vt 0.000000 0.312500
vt 0.000000 0.812500
vt 0.062500 0.812500
vt 0.062500 0.312500
vt 0.000000 0.093750
vt 0.000000 0.593750
vt 0.062500 0.593750
vt 0.062500 0.093750
vt 0.000000 0.812500
vt 0.062500 0.812500
vt 0.062500 0.968750
vt 0.000000 0.968750
vt 0.000000 0.312500
vt 0.000000 0.812500
vt 0.062500 0.812500
vt 0.062500 0.312500
vt 0.000000 0.093750
vt 0.000000 0.593750
vt 0.062500 0.593750
vt 0.062500 0.093750
vt 0.000000 0.625000
vt 0.062500 0.625000
vt 0.062500 0.781250
vt 0.000000 0.781250
vt 0.000000 0.093750
vt 0.000000 0.593750
vt 0.062500 0.593750
vt 0.062500 0.093750
vt 0.000000 0.312500
vt 0.000000 0.812500
vt 0.062500 0.812500
vt 0.062500 0.312500
vt 0.000000 0.468750
vt 0.062500 0.468750
vt 0.000000 0.312500
vt 0.000000 0.812500
vt 0.062500 0.812500
vt 0.062500 0.312500
vt 0.000000 0.093750
vt 0.000000 0.593750
vt 0.062500 0.593750
vt 0.062500 0.093750
vt 0.000000 0.312500
vt 0.062500 0.312500
vt 0.000000 0.312500
vt 0.000000 0.812500
vt 0.062500 0.812500
vt 0.062500 0.312500
vt 0.000000 0.093750
vt 0.000000 0.593750
vt 0.062500 0.593750
vt 0.062500 0.093750
vt 0.000000 0.156250
vt 0.062500 0.156250
vt 0.000000 0.531250
vt 0.000000 0.031250
vt 0.062500 0.031250
vt 0.062500 0.531250
vt 0.000000 0.000000
vt 0.062500 0.000000
vt 0.000000 0.312500
vt 0.000000 0.812500
vt 0.062500 0.812500
vt 0.062500 0.312500
vt 0.000000 0.312500
vt 0.000000 0.812500
vt 0.062500 0.812500
vt 0.062500 0.312500
vt 0.000000 0.093750
vt 0.000000 0.593750
vt 0.062500 0.593750
vt 0.062500 0.093750
vt 0.000000 0.000000
vt 0.062500 0.000000
vt 0.062500 0.156250
vt 0.000000 0.156250
vt 0.000000 0.312500
vt 0.000000 0.812500
vt 0.062500 0.812500
vt 0.062500 0.312500
vt 0.000000 0.093750
vt 0.000000 0.593750
vt 0.062500 0.593750
vt 0.062500 0.093750
vt 0.062500 0.312500
vt 0.000000 0.312500
vt 0.000000 0.093750
vt 0.000000 0.593750
vt 0.062500 0.593750
vt 0.062500 0.093750
vt 0.000000 0.312500
vt 0.000000 0.812500
vt 0.062500 0.812500
vt 0.062500 0.312500
vt 0.062500 0.468750
vt 0.000000 0.468750
vt 0.000000 0.312500
vt 0.000000 0.812500
vt 0.062500 0.812500
vt 0.062500 0.312500
vt 0.000000 0.093750
vt 0.000000 0.593750
vt 0.062500 0.593750
vt 0.062500 0.093750
vt 0.062500 0.625000
vt 0.000000 0.625000
vt 0.000000 0.312500
vt 0.000000 0.812500
vt 0.062500 0.812500
vt 0.062500 0.312500
vt 0.000000 0.093750
vt 0.000000 0.593750
vt 0.062500 0.593750
vt 0.062500 0.093750
vt 0.000000 0.687500
vt 0.062500 0.687500
vt 0.062500 0.843750
vt 0.000000 0.843750
vt 0.000000 0.093750
vt 0.000000 0.593750
vt 0.062500 0.593750
vt 0.062500 0.093750
vt 0.000000 0.312500
vt 0.000000 0.812500
vt 0.062500 0.812500
vt 0.062500 0.312500
vt 0.000000 0.062500
vt 0.062500 0.062500
vt 0.062500 0.250000
vt 0.000000 0.250000
vt 0.000000 0.093750
vt 0.000000 0.593750
vt 0.062500 0.593750
vt 0.062500 0.093750
vt 0.000000 0.500000
vt 0.062500 0.500000
vt 0.062500 1.000000
vt 0.000000 1.000000
vn 0.0000 0.0000 -1.0000
vn -0.8660 0.5000 0.0000
vn 0.0000 0.0000 1.0000
vn -0.9135 0.4067 -0.0000
vn -0.9511 0.3090 0.0000
vn -0.9781 0.2079 -0.0000
vn -0.9945 0.1045 0.0000
vn -1.0000 0.0000 0.0000
vn -0.8090 0.5878 -0.0000
vn -0.7431 0.6691 0.0000
vn -0.0001 -0.0001 -1.0000
vn -0.0000 -0.0001 -1.0000
vn -0.6691 0.7431 0.0000
vn -0.5878 0.8090 0.0000
vn -0.5000 0.8660 -0.0000
vn 0.0008 0.0003 1.0000
vn -0.0001 -0.0000 -1.0000
vn -0.4252 0.9051 0.0000
vn -0.0047 0.0003 -1.0000
vn 0.0047 0.0003 1.0000
vn -0.3754 0.9268 -0.0000
vn -0.0410 0.9992 0.0000
vn 0.4998 0.8661 0.0000
vn -0.5000 -0.8660 0.0000
vn 0.8662 -0.4997 0.0000
vn 0.4067 0.9135 0.0000
vn -0.4067 -0.9135 0.0000
vn 0.9135 -0.4067 0.0000
vn -0.3090 -0.9511 -0.0000
vn 0.3090 0.9511 0.0000
vn 0.9511 -0.3090 -0.0000
vn 0.2079 0.9781 0.0000
vn -0.2079 -0.9781 0.0000
vn 0.9781 -0.2079 0.0000
vn 0.1045 0.9945 -0.0000
vn -0.1045 -0.9945 0.0000
vn 0.9945 -0.1045 0.0000
vn 0.0000 -1.0000 0.0000
vn 1.0000 0.0000 0.0000
vn 0.0000 1.0000 -0.0000
vn 0.5878 0.8090 -0.0000
vn -0.5879 -0.8089 0.0000
vn 0.8093 -0.5874 0.0000
vn 0.6691 0.7431 0.0000
vn -0.6691 -0.7431 0.0000
vn 0.7431 -0.6691 0.0000
vn -0.7431 -0.6691 0.0000
vn 0.7431 0.6691 0.0000
vn 0.6691 -0.7431 0.0000
vn 0.8090 0.5878 0.0000
vn -0.8090 -0.5878 0.0000
vn 0.5878 -0.8090 0.0000
vn 0.8660 0.5000 -0.0000
vn -0.8660 -0.5000 0.0000
vn 0.5000 -0.8660 0.0000
vn -0.9135 -0.4067 0.0000
vn 0.9117 0.4108 0.0000
vn 0.3518 -0.9361 0.0000
vn -0.9402 -0.3407 0.0000
vn 1.0000 -0.0043 0.0000
usemtl m_keystones
s 1
f 55/143/18 56/144/18 57/145/18 58/146/18
f 56/147/19 61/148/19 59/149/19 57/150/19
f 61/151/20 62/152/20 60/153/20 59/154/20
f 63/155/20 64/156/20 62/152/20 65/157/20
f 67/158/18 68/159/18 66/160/18 55/161/18
f 68/162/21 63/163/21 65/164/21 66/165/21
f 70/166/20 69/167/20 64/156/20 73/168/20
f 71/169/22 70/170/22 73/171/22 74/172/22
f 72/173/18 71/174/18 74/175/18 67/176/18
f 75/177/18 76/178/18 77/179/18 72/180/18
f 76/181/23 79/182/23 78/183/23 77/184/23
f 79/185/20 80/186/20 69/167/20 78/187/20
f 81/188/20 82/189/20 80/186/20 83/190/20
f 85/191/18 86/192/18 84/193/18 75/194/18
f 86/195/24 81/196/24 83/197/24 84/198/24
f 87/199/18 88/200/18 89/201/18 85/202/18
f 88/203/25 91/204/25 92/205/25 89/206/25
f 91/207/20 90/208/20 82/189/20 92/209/20
f 58/210/18 97/211/18 94/212/18 93/213/18
f 97/214/26 98/215/26 95/216/26 94/217/26
f 98/218/20 60/219/20 96/220/20 95/221/20
f 103/222/27 104/223/27 101/224/27 100/225/27
f 93/226/28 103/227/28 100/228/28 99/229/28
f 104/230/20 96/220/20 102/231/20 101/232/20
f 99/233/29 105/234/29 106/235/29 107/236/29
f 105/237/30 108/238/30 109/239/30 106/240/30
f 108/241/20 102/231/20 110/242/20 109/243/20
f 111/244/20 110/242/20 112/245/20 113/246/20
f 107/247/18 114/248/18 115/249/18 116/250/18
f 114/251/31 111/252/31 113/253/31 115/254/31
f 117/255/20 112/245/20 118/256/20 119/257/20
f 116/258/18 120/259/18 121/260/18 122/261/18
f 120/262/32 117/263/32 119/264/32 121/265/32
f 123/266/33 118/267/33 124/268/33 125/269/33
f 122/270/34 126/271/34 127/272/34 128/273/34
f 126/274/35 123/275/35 125/276/35 127/277/35
f 131/278/36 132/279/36 128/280/36 130/281/36
f 124/282/37 133/283/37 134/284/37 129/285/37
f 134/286/38 131/287/38 130/288/38 129/289/38
f 131/287/39 134/286/39 133/290/39 132/291/39
usemtl m_arch
f 58/292/40 57/293/40 59/294/40 60/295/40
f 62/296/41 61/297/41 56/298/41 55/299/41
f 62/300/42 55/301/42 58/302/42 60/303/42
f 55/304/43 66/305/43 65/306/43 62/307/43
f 64/308/44 63/309/44 68/310/44 67/311/44
f 64/312/45 67/313/45 55/314/45 62/315/45
f 69/316/46 70/317/46 71/318/46 72/319/46
f 67/320/47 74/321/47 73/322/47 64/323/47
f 69/324/48 72/325/48 67/313/48 64/312/48
f 72/326/49 77/327/49 78/328/49 69/329/49
f 80/330/50 79/331/50 76/332/50 75/333/50
f 80/334/51 75/335/51 72/325/51 69/324/51
f 75/336/52 84/337/52 83/338/52 80/339/52
f 82/340/53 81/341/53 86/342/53 85/343/53
f 82/344/54 85/345/54 75/335/54 80/334/54
f 90/346/55 91/347/55 88/348/55 87/349/55
f 90/350/56 87/351/56 85/345/56 82/344/56
f 85/352/57 89/353/57 92/354/57 82/355/57
f 93/356/58 94/357/58 95/358/58 96/359/58
f 60/360/59 98/361/59 97/362/59 58/363/59
f 60/364/60 58/365/60 93/366/60 96/367/60
f 99/368/61 100/369/61 101/370/61 102/371/61
f 96/372/62 104/373/62 103/374/62 93/375/62
f 96/367/63 93/366/63 99/376/63 102/377/63
f 102/378/64 108/379/64 105/380/64 99/381/64
f 107/382/65 106/383/65 109/384/65 110/385/65
f 102/377/66 99/376/66 107/386/66 110/387/66
f 116/388/67 115/389/67 113/390/67 112/391/67
f 110/392/68 111/393/68 114/394/68 107/395/68
f 110/387/69 107/386/69 116/396/69 112/397/69
f 122/398/70 121/399/70 119/400/70 118/401/70
f 112/402/71 117/403/71 120/404/71 116/405/71
f 112/406/72 116/407/72 122/408/72 118/409/72
f 118/410/73 123/411/73 126/412/73 122/413/73
f 128/414/74 127/415/74 125/416/74 124/417/74
f 118/418/75 122/419/75 128/420/75 124/421/75
f 124/422/76 129/423/76 130/424/76 128/425/76
f 132/426/77 133/427/77 124/428/77 128/429/77
